<?xml version="1.0" encoding="utf-8"?>
<svg version="1.1" xmlns:xlink="http://www.w3.org/1999/xlink" width="15px" height="15px" viewBox="9 983  15 15" xmlns="http://www.w3.org/2000/svg">
  <path d="M 16.5 983  C 20.700000000000003 983  24 986.3  24 990.5  C 24 994.7  20.700000000000003 998  16.5 998  C 12.3 998  9 994.7  9 990.5  C 9 986.3  12.3 983  16.5 983  Z " fill-rule="nonzero" fill="#f0f0f0" stroke="none" />
  <path d="M 16.5 983.5  C 20.42 983.5  23.5 986.58  23.5 990.5  C 23.5 994.42  20.42 997.5  16.5 997.5  C 12.58 997.5  9.5 994.42  9.5 990.5  C 9.5 986.58  12.58 983.5  16.5 983.5  Z " stroke-width="1" stroke="#797979" fill="none" />
  <path d="M 16.5 994.25  C 14.4 994.25  12.75 992.6  12.75 990.5  C 12.75 988.4  14.4 986.75  16.5 986.75  C 18.6 986.75  20.25 988.4  20.25 990.5  C 20.25 992.6  18.6 994.25  16.5 994.25  " fill-rule="nonzero" fill="#797979" stroke="none" />
</svg>