<?xml version="1.0" encoding="utf-8"?>
<svg version="1.1" xmlns:xlink="http://www.w3.org/1999/xlink" width="15px" height="15px" viewBox="9 958  15 15" xmlns="http://www.w3.org/2000/svg">
  <path d="M 16.5 958  C 20.700000000000003 958  24 961.3  24 965.5  C 24 969.7  20.700000000000003 973  16.5 973  C 12.3 973  9 969.7  9 965.5  C 9 961.3  12.3 958  16.5 958  Z " fill-rule="nonzero" fill="#ffffff" stroke="none" />
  <path d="M 16.5 958.5  C 20.42 958.5  23.5 961.58  23.5 965.5  C 23.5 969.42  20.42 972.5  16.5 972.5  C 12.58 972.5  9.5 969.42  9.5 965.5  C 9.5 961.58  12.58 958.5  16.5 958.5  Z " stroke-width="1" stroke="#797979" fill="none" />
  <path d="M 16.5 969.25  C 14.4 969.25  12.75 967.6  12.75 965.5  C 12.75 963.4  14.4 961.75  16.5 961.75  C 18.6 961.75  20.25 963.4  20.25 965.5  C 20.25 967.6  18.6 969.25  16.5 969.25  " fill-rule="nonzero" fill="#797979" stroke="none" />
</svg>