<?xml version="1.0" encoding="utf-8"?>
<svg version="1.1" xmlns:xlink="http://www.w3.org/1999/xlink" width="15px" height="15px" viewBox="9 1122  15 15" xmlns="http://www.w3.org/2000/svg">
  <path d="M 16.5 1122  C 20.700000000000003 1122  24 1125.3  24 1129.5  C 24 1133.7  20.700000000000003 1137  16.5 1137  C 12.3 1137  9 1133.7  9 1129.5  C 9 1125.3  12.3 1122  16.5 1122  Z " fill-rule="nonzero" fill="#f0f0f0" stroke="none" />
  <path d="M 16.5 1122.5  C 20.42 1122.5  23.5 1125.58  23.5 1129.5  C 23.5 1133.42  20.42 1136.5  16.5 1136.5  C 12.58 1136.5  9.5 1133.42  9.5 1129.5  C 9.5 1125.58  12.58 1122.5  16.5 1122.5  Z " stroke-width="1" stroke="#797979" fill="none" />
  <path d="M 16.5 1133.25  C 14.4 1133.25  12.75 1131.6  12.75 1129.5  C 12.75 1127.4  14.4 1125.75  16.5 1125.75  C 18.6 1125.75  20.25 1127.4  20.25 1129.5  C 20.25 1131.6  18.6 1133.25  16.5 1133.25  " fill-rule="nonzero" fill="#797979" stroke="none" />
</svg>