<?xml version="1.0" encoding="utf-8"?>
<svg version="1.1" xmlns:xlink="http://www.w3.org/1999/xlink" width="15px" height="15px" viewBox="9 549  15 15" xmlns="http://www.w3.org/2000/svg">
  <path d="M 16.5 549  C 20.700000000000003 549  24 552.3  24 556.5  C 24 560.7  20.700000000000003 564  16.5 564  C 12.3 564  9 560.7  9 556.5  C 9 552.3  12.3 549  16.5 549  Z " fill-rule="nonzero" fill="#f0f0f0" stroke="none" />
  <path d="M 16.5 549.5  C 20.42 549.5  23.5 552.58  23.5 556.5  C 23.5 560.42  20.42 563.5  16.5 563.5  C 12.58 563.5  9.5 560.42  9.5 556.5  C 9.5 552.58  12.58 549.5  16.5 549.5  Z " stroke-width="1" stroke="#797979" fill="none" />
  <path d="M 16.5 560.25  C 14.4 560.25  12.75 558.6  12.75 556.5  C 12.75 554.4  14.4 552.75  16.5 552.75  C 18.6 552.75  20.25 554.4  20.25 556.5  C 20.25 558.6  18.6 560.25  16.5 560.25  " fill-rule="nonzero" fill="#797979" stroke="none" />
</svg>