<?xml version="1.0" encoding="utf-8"?>
<svg version="1.1" xmlns:xlink="http://www.w3.org/1999/xlink" width="15px" height="15px" viewBox="9 730  15 15" xmlns="http://www.w3.org/2000/svg">
  <path d="M 16.5 730  C 20.700000000000003 730  24 733.3  24 737.5  C 24 741.7  20.700000000000003 745  16.5 745  C 12.3 745  9 741.7  9 737.5  C 9 733.3  12.3 730  16.5 730  Z " fill-rule="nonzero" fill="#ffffff" stroke="none" />
  <path d="M 16.5 730.5  C 20.42 730.5  23.5 733.58  23.5 737.5  C 23.5 741.42  20.42 744.5  16.5 744.5  C 12.58 744.5  9.5 741.42  9.5 737.5  C 9.5 733.58  12.58 730.5  16.5 730.5  Z " stroke-width="1" stroke="#797979" fill="none" />
  <path d="M 16.5 741.25  C 14.4 741.25  12.75 739.6  12.75 737.5  C 12.75 735.4  14.4 733.75  16.5 733.75  C 18.6 733.75  20.25 735.4  20.25 737.5  C 20.25 739.6  18.6 741.25  16.5 741.25  " fill-rule="nonzero" fill="#797979" stroke="none" />
</svg>