<?xml version="1.0" encoding="utf-8"?>
<svg version="1.1" xmlns:xlink="http://www.w3.org/1999/xlink" width="15px" height="15px" viewBox="9 198  15 15" xmlns="http://www.w3.org/2000/svg">
  <path d="M 16.5 198  C 20.700000000000003 198  24 201.3  24 205.5  C 24 209.7  20.700000000000003 213  16.5 213  C 12.3 213  9 209.7  9 205.5  C 9 201.3  12.3 198  16.5 198  Z " fill-rule="nonzero" fill="#f0f0f0" stroke="none" />
  <path d="M 16.5 198.5  C 20.42 198.5  23.5 201.58  23.5 205.5  C 23.5 209.42  20.42 212.5  16.5 212.5  C 12.58 212.5  9.5 209.42  9.5 205.5  C 9.5 201.58  12.58 198.5  16.5 198.5  Z " stroke-width="1" stroke="#797979" fill="none" />
  <path d="M 16.5 209.25  C 14.4 209.25  12.75 207.6  12.75 205.5  C 12.75 203.4  14.4 201.75  16.5 201.75  C 18.6 201.75  20.25 203.4  20.25 205.5  C 20.25 207.6  18.6 209.25  16.5 209.25  " fill-rule="nonzero" fill="#797979" stroke="none" />
</svg>