<?xml version="1.0" encoding="utf-8"?>
<svg version="1.1" xmlns:xlink="http://www.w3.org/1999/xlink" width="15px" height="15px" viewBox="9 655  15 15" xmlns="http://www.w3.org/2000/svg">
  <path d="M 16.5 655  C 20.700000000000003 655  24 658.3  24 662.5  C 24 666.7  20.700000000000003 670  16.5 670  C 12.3 670  9 666.7  9 662.5  C 9 658.3  12.3 655  16.5 655  Z " fill-rule="nonzero" fill="#ffffff" stroke="none" />
  <path d="M 16.5 655.5  C 20.42 655.5  23.5 658.58  23.5 662.5  C 23.5 666.42  20.42 669.5  16.5 669.5  C 12.58 669.5  9.5 666.42  9.5 662.5  C 9.5 658.58  12.58 655.5  16.5 655.5  Z " stroke-width="1" stroke="#797979" fill="none" />
  <path d="M 16.5 666.25  C 14.4 666.25  12.75 664.6  12.75 662.5  C 12.75 660.4  14.4 658.75  16.5 658.75  C 18.6 658.75  20.25 660.4  20.25 662.5  C 20.25 664.6  18.6 666.25  16.5 666.25  " fill-rule="nonzero" fill="#797979" stroke="none" />
</svg>