<?xml version="1.0" encoding="utf-8"?>
<svg version="1.1" xmlns:xlink="http://www.w3.org/1999/xlink" width="15px" height="15px" viewBox="9 267  15 15" xmlns="http://www.w3.org/2000/svg">
  <path d="M 16.5 267  C 20.700000000000003 267  24 270.3  24 274.5  C 24 278.7  20.700000000000003 282  16.5 282  C 12.3 282  9 278.7  9 274.5  C 9 270.3  12.3 267  16.5 267  Z " fill-rule="nonzero" fill="#ffffff" stroke="none" />
  <path d="M 16.5 267.5  C 20.42 267.5  23.5 270.58  23.5 274.5  C 23.5 278.42  20.42 281.5  16.5 281.5  C 12.58 281.5  9.5 278.42  9.5 274.5  C 9.5 270.58  12.58 267.5  16.5 267.5  Z " stroke-width="1" stroke="#797979" fill="none" />
  <path d="M 16.5 278.25  C 14.4 278.25  12.75 276.6  12.75 274.5  C 12.75 272.4  14.4 270.75  16.5 270.75  C 18.6 270.75  20.25 272.4  20.25 274.5  C 20.25 276.6  18.6 278.25  16.5 278.25  " fill-rule="nonzero" fill="#797979" stroke="none" />
</svg>