<?xml version="1.0" encoding="utf-8"?>
<svg version="1.1" xmlns:xlink="http://www.w3.org/1999/xlink" width="15px" height="15px" viewBox="9 376  15 15" xmlns="http://www.w3.org/2000/svg">
  <path d="M 16.5 376  C 20.700000000000003 376  24 379.3  24 383.5  C 24 387.7  20.700000000000003 391  16.5 391  C 12.3 391  9 387.7  9 383.5  C 9 379.3  12.3 376  16.5 376  Z " fill-rule="nonzero" fill="#f0f0f0" stroke="none" />
  <path d="M 16.5 376.5  C 20.42 376.5  23.5 379.58  23.5 383.5  C 23.5 387.42  20.42 390.5  16.5 390.5  C 12.58 390.5  9.5 387.42  9.5 383.5  C 9.5 379.58  12.58 376.5  16.5 376.5  Z " stroke-width="1" stroke="#797979" fill="none" />
  <path d="M 16.5 387.25  C 14.4 387.25  12.75 385.6  12.75 383.5  C 12.75 381.4  14.4 379.75  16.5 379.75  C 18.6 379.75  20.25 381.4  20.25 383.5  C 20.25 385.6  18.6 387.25  16.5 387.25  " fill-rule="nonzero" fill="#797979" stroke="none" />
</svg>