<?xml version="1.0" encoding="utf-8"?>
<svg version="1.1" xmlns:xlink="http://www.w3.org/1999/xlink" width="15px" height="15px" viewBox="9 1008  15 15" xmlns="http://www.w3.org/2000/svg">
  <path d="M 16.5 1008  C 20.700000000000003 1008  24 1011.3  24 1015.5  C 24 1019.7  20.700000000000003 1023  16.5 1023  C 12.3 1023  9 1019.7  9 1015.5  C 9 1011.3  12.3 1008  16.5 1008  Z " fill-rule="nonzero" fill="#f0f0f0" stroke="none" />
  <path d="M 16.5 1008.5  C 20.42 1008.5  23.5 1011.58  23.5 1015.5  C 23.5 1019.42  20.42 1022.5  16.5 1022.5  C 12.58 1022.5  9.5 1019.42  9.5 1015.5  C 9.5 1011.58  12.58 1008.5  16.5 1008.5  Z " stroke-width="1" stroke="#797979" fill="none" />
  <path d="M 16.5 1019.25  C 14.4 1019.25  12.75 1017.6  12.75 1015.5  C 12.75 1013.4  14.4 1011.75  16.5 1011.75  C 18.6 1011.75  20.25 1013.4  20.25 1015.5  C 20.25 1017.6  18.6 1019.25  16.5 1019.25  " fill-rule="nonzero" fill="#797979" stroke="none" />
</svg>