<?xml version="1.0" encoding="utf-8"?>
<svg version="1.1" xmlns:xlink="http://www.w3.org/1999/xlink" width="15px" height="15px" viewBox="9 156  15 15" xmlns="http://www.w3.org/2000/svg">
  <path d="M 16.5 156  C 20.700000000000003 156  24 159.3  24 163.5  C 24 167.7  20.700000000000003 171  16.5 171  C 12.3 171  9 167.7  9 163.5  C 9 159.3  12.3 156  16.5 156  Z " fill-rule="nonzero" fill="#f0f0f0" stroke="none" />
  <path d="M 16.5 156.5  C 20.42 156.5  23.5 159.58  23.5 163.5  C 23.5 167.42  20.42 170.5  16.5 170.5  C 12.58 170.5  9.5 167.42  9.5 163.5  C 9.5 159.58  12.58 156.5  16.5 156.5  Z " stroke-width="1" stroke="#797979" fill="none" />
  <path d="M 16.5 167.25  C 14.4 167.25  12.75 165.6  12.75 163.5  C 12.75 161.4  14.4 159.75  16.5 159.75  C 18.6 159.75  20.25 161.4  20.25 163.5  C 20.25 165.6  18.6 167.25  16.5 167.25  " fill-rule="nonzero" fill="#797979" stroke="none" />
</svg>