<?xml version="1.0" encoding="utf-8"?>
<svg version="1.1" xmlns:xlink="http://www.w3.org/1999/xlink" width="15px" height="15px" viewBox="9 292  15 15" xmlns="http://www.w3.org/2000/svg">
  <path d="M 16.5 292  C 20.700000000000003 292  24 295.3  24 299.5  C 24 303.7  20.700000000000003 307  16.5 307  C 12.3 307  9 303.7  9 299.5  C 9 295.3  12.3 292  16.5 292  Z " fill-rule="nonzero" fill="#f0f0f0" stroke="none" />
  <path d="M 16.5 292.5  C 20.42 292.5  23.5 295.58  23.5 299.5  C 23.5 303.42  20.42 306.5  16.5 306.5  C 12.58 306.5  9.5 303.42  9.5 299.5  C 9.5 295.58  12.58 292.5  16.5 292.5  Z " stroke-width="1" stroke="#797979" fill="none" />
  <path d="M 16.5 303.25  C 14.4 303.25  12.75 301.6  12.75 299.5  C 12.75 297.4  14.4 295.75  16.5 295.75  C 18.6 295.75  20.25 297.4  20.25 299.5  C 20.25 301.6  18.6 303.25  16.5 303.25  " fill-rule="nonzero" fill="#797979" stroke="none" />
</svg>