<?xml version="1.0" encoding="utf-8"?>
<svg version="1.1" xmlns:xlink="http://www.w3.org/1999/xlink" width="32px" height="32px" xmlns="http://www.w3.org/2000/svg">
  <g>
    <path d="M 14.479166666666666 22.479166666666664  C 14.604166666666666 22.354166666666664  14.666666666666666 22.194444444444443  15 22  L 15 10  C 14.666666666666666 9.805555555555554  14.604166666666666 9.645833333333332  14.479166666666666 9.520833333333332  C 14.354166666666666 9.395833333333332  14.194444444444445 9.333333333333332  14 9.333333333333332  L 8.666666666666666 9.333333333333332  C 8.472222222222223 9.333333333333332  8.312500000000002 9.395833333333332  8.1875 9.520833333333332  C 8.0625 9.645833333333332  8 9.805555555555554  8 10  L 8 22  C 8 22.194444444444443  8.0625 22.354166666666664  8.1875 22.479166666666664  C 8.312500000000002 22.604166666666664  8.472222222222223 22.666666666666664  8.666666666666666 22.666666666666664  L 14 22.666666666666664  C 14.194444444444445 22.666666666666664  14.354166666666666 22.604166666666664  14.479166666666666 22.479166666666664  Z M 23.8125 22.479166666666664  C 23.9375 22.354166666666664  24 22.194444444444443  24 22  L 24 10  C 24 9.805555555555554  23.9375 9.645833333333332  23.8125 9.520833333333332  C 23.6875 9.395833333333332  23.527777777777782 9.333333333333332  23.333333333333332 9.333333333333332  L 18 9.333333333333332  C 17.805555555555557 9.333333333333332  17.645833333333332 9.395833333333332  17.520833333333332 9.520833333333332  C 17.395833333333332 9.645833333333332  17.333333333333332 9.805555555555554  17 10  L 17 22  C 17.333333333333332 22.194444444444443  17.395833333333332 22.354166666666664  17.520833333333332 22.479166666666664  C 17.645833333333332 22.604166666666664  17.805555555555557 22.666666666666664  18 22.666666666666664  L 23.333333333333332 22.666666666666664  C 23.527777777777782 22.666666666666664  23.6875 22.604166666666664  23.8125 22.479166666666664  Z M 29.854166666666668 7.96875  C 31.284722222222218 10.420138888888886  32 13.097222222222218  32 16  C 32 18.90277777777778  31.284722222222218 21.579861111111107  29.854166666666668 24.03125  C 28.423611111111114 26.48263888888889  26.48263888888889 28.42361111111111  24.03125 29.854166666666668  C 21.579861111111114 31.284722222222225  18.90277777777778 32  16 32  C 13.097222222222223 32  10.42013888888889 31.284722222222225  7.96875 29.854166666666668  C 5.517361111111112 28.42361111111111  3.5763888888888893 26.48263888888889  2.1458333333333335 24.03125  C 0.7152777777777777 21.579861111111107  0 18.90277777777778  0 16  C 0 13.097222222222218  0.7152777777777777 10.420138888888886  2.1458333333333335 7.96875  C 3.5763888888888893 5.517361111111111  5.517361111111112 3.5763888888888857  7.96875 2.145833333333332  C 10.42013888888889 0.715277777777775  13.097222222222223 0  16 0  C 18.90277777777778 0  21.579861111111114 0.715277777777775  24.03125 2.145833333333332  C 26.48263888888889 3.5763888888888857  28.423611111111114 5.517361111111111  29.854166666666668 7.96875  Z " fill-rule="nonzero" fill="#000000" stroke="none" />
  </g>
</svg>