<?xml version="1.0" encoding="utf-8"?>
<svg version="1.1" xmlns:xlink="http://www.w3.org/1999/xlink" width="39px" height="40px" xmlns="http://www.w3.org/2000/svg">
  <defs>
    <filter x="56px" y="1166px" width="39px" height="40px" filterUnits="userSpaceOnUse" id="filter122">
      <feOffset dx="5" dy="5" in="SourceAlpha" result="shadowOffsetInner" />
      <feGaussianBlur stdDeviation="2.5" in="shadowOffsetInner" result="shadowGaussian" />
      <feComposite in2="shadowGaussian" operator="atop" in="SourceAlpha" result="shadowComposite" />
      <feColorMatrix type="matrix" values="0 0 0 0 0  0 0 0 0 0  0 0 0 0 0  0 0 0 0.34901960784313724 0  " in="shadowComposite" />
    </filter>
    <g id="widget123">
      <path d="M 19.163411458333332 24.82421875  C 19.276692708333332 24.70703125  19.333333333333332 24.557291666666664  19.333333333333332 24.375  L 19.333333333333332 21.249999999999996  C 19.333333333333332 21.067708333333332  19.276692708333332 20.91796875  19.163411458333332 20.80078125  C 19.050130208333332 20.68359375  18.905381944444443 20.625  18.729166666666668 20.625  L 17 20.625  L 17 10.624999999999998  C 16.916666666666668 10.442708333333334  16.860026041666668 10.292968750000002  16.746744791666668 10.175781250000002  C 16.633463541666668 10.058593750000002  16.48871527777778 10.000000000000002  16.3125 10.000000000000002  L 10.270833333333334 10.000000000000002  C 10.094618055555557 10.000000000000002  9.949869791666666 10.058593750000002  9.836588541666666 10.175781250000002  C 9.723307291666666 10.292968750000002  9.666666666666666 10.442708333333334  9.666666666666666 10.624999999999998  L 9.666666666666666 13.750000000000002  C 9.666666666666666 13.932291666666666  9.723307291666666 14.082031249999998  9.836588541666666 14.199218749999998  C 9.949869791666666 14.316406249999998  10.094618055555557 14.374999999999998  10.270833333333334 14.374999999999998  L 12.083333333333334 14.374999999999998  L 12.083333333333334 20.625  L 10.270833333333334 20.625  C 10.094618055555557 20.625  9.949869791666666 20.68359375  9.836588541666666 20.80078125  C 9.723307291666666 20.91796875  9.666666666666666 21.067708333333332  9.666666666666666 21.249999999999996  L 9.666666666666666 24.375  C 9.666666666666666 24.557291666666664  9.723307291666666 24.70703125  9.836588541666666 24.82421875  C 9.949869791666666 24.94140625  10.094618055555557 25  10.270833333333334 25  L 18.729166666666668 25  C 18.905381944444443 25  19.050130208333332 24.94140625  19.163411458333332 24.82421875  Z M 16.746744791666668 7.32421875  C 16.860026041666668 7.20703125  16.916666666666668 7.057291666666664  16.916666666666668 6.874999999999999  L 16.916666666666668 3.75  C 16.916666666666668 3.5677083333333313  16.860026041666668 3.417968749999999  16.746744791666668 3.300781249999999  C 16.633463541666668 3.183593749999999  16.48871527777778 3.124999999999999  16.3125 3.124999999999999  L 12.6875 3.124999999999999  C 12.511284722222223 3.124999999999999  12.366536458333334 3.183593749999999  12.253255208333334 3.300781249999999  C 12.139973958333334 3.417968749999999  12.083333333333334 3.5677083333333313  12.083333333333334 3.75  L 12.083333333333334 6.874999999999999  C 12.083333333333334 7.057291666666664  12.139973958333334 7.20703125  12.253255208333334 7.32421875  C 12.366536458333334 7.44140625  12.511284722222223 7.5  12.6875 7.5  L 16.3125 7.5  C 16.48871527777778 7.5  16.633463541666668 7.44140625  16.746744791666668 7.32421875  Z M 27.055338541666668 7.470703125  C 28.351779513888886 9.76888020833333  29 12.278645833333329  29 15  C 29 17.721354166666668  28.351779513888886 20.231119791666664  27.055338541666668 22.529296875  C 25.758897569444446 24.827473958333332  23.999891493055557 26.647135416666668  21.7783203125 27.98828125  C 19.556749131944446 29.329427083333336  17.13064236111111 30  14.5 30  C 11.86935763888889 30  9.443250868055555 29.329427083333336  7.2216796875 27.98828125  C 5.000108506944445 26.647135416666668  3.241102430555556 24.827473958333332  1.9446614583333335 22.529296875  C 0.648220486111111 20.231119791666664  0 17.721354166666668  0 15  C 0 12.278645833333329  0.648220486111111 9.76888020833333  1.9446614583333335 7.470703125  C 3.241102430555556 5.172526041666666  5.000108506944445 3.3528645833333304  7.2216796875 2.011718749999999  C 9.443250868055555 0.6705729166666641  11.86935763888889 0  14.5 0  C 17.13064236111111 0  19.556749131944446 0.6705729166666641  21.7783203125 2.011718749999999  C 23.999891493055557 3.3528645833333304  25.758897569444446 5.172526041666666  27.055338541666668 7.470703125  Z " fill-rule="nonzero" fill="#d9001b" stroke="none" transform="matrix(1 0 0 1 56 1166 )" />
    </g>
  </defs>
  <g transform="matrix(1 0 0 1 -56 -1166 )">
    <use xlink:href="#widget123" filter="url(#filter122)" />
    <use xlink:href="#widget123" />
  </g>
</svg>