<?xml version="1.0" encoding="utf-8"?>
<svg version="1.1" xmlns:xlink="http://www.w3.org/1999/xlink" width="15px" height="15px" viewBox="7 79  15 15" xmlns="http://www.w3.org/2000/svg">
  <path d="M 14.5 79  C 18.700000000000003 79  22 82.3  22 86.5  C 22 90.7  18.700000000000003 94  14.5 94  C 10.3 94  7 90.7  7 86.5  C 7 82.3  10.3 79  14.5 79  Z " fill-rule="nonzero" fill="#f0f0f0" stroke="none" />
  <path d="M 14.5 79.5  C 18.42 79.5  21.5 82.58  21.5 86.5  C 21.5 90.42  18.42 93.5  14.5 93.5  C 10.58 93.5  7.5 90.42  7.5 86.5  C 7.5 82.58  10.58 79.5  14.5 79.5  Z " stroke-width="1" stroke="#797979" fill="none" />
  <path d="M 14.5 90.25  C 12.4 90.25  10.75 88.6  10.75 86.5  C 10.75 84.4  12.4 82.75  14.5 82.75  C 16.6 82.75  18.25 84.4  18.25 86.5  C 18.25 88.6  16.6 90.25  14.5 90.25  " fill-rule="nonzero" fill="#797979" stroke="none" />
</svg>