<?xml version="1.0" encoding="utf-8"?>
<svg version="1.1" xmlns:xlink="http://www.w3.org/1999/xlink" width="15px" height="15px" viewBox="6 706  15 15" xmlns="http://www.w3.org/2000/svg">
  <path d="M 13.5 706  C 17.700000000000003 706  21 709.3  21 713.5  C 21 717.7  17.700000000000003 721  13.5 721  C 9.3 721  6 717.7  6 713.5  C 6 709.3  9.3 706  13.5 706  Z " fill-rule="nonzero" fill="#ffffff" stroke="none" />
  <path d="M 13.5 706.5  C 17.42 706.5  20.5 709.58  20.5 713.5  C 20.5 717.42  17.42 720.5  13.5 720.5  C 9.58 720.5  6.5 717.42  6.5 713.5  C 6.5 709.58  9.58 706.5  13.5 706.5  Z " stroke-width="1" stroke="#797979" fill="none" />
  <path d="M 13.5 717.25  C 11.4 717.25  9.75 715.6  9.75 713.5  C 9.75 711.4  11.4 709.75  13.5 709.75  C 15.6 709.75  17.25 711.4  17.25 713.5  C 17.25 715.6  15.6 717.25  13.5 717.25  " fill-rule="nonzero" fill="#797979" stroke="none" />
</svg>