<?xml version="1.0" encoding="utf-8"?>
<svg version="1.1" xmlns:xlink="http://www.w3.org/1999/xlink" width="15px" height="15px" viewBox="6 759  15 15" xmlns="http://www.w3.org/2000/svg">
  <path d="M 13.5 759  C 17.700000000000003 759  21 762.3  21 766.5  C 21 770.7  17.700000000000003 774  13.5 774  C 9.3 774  6 770.7  6 766.5  C 6 762.3  9.3 759  13.5 759  Z " fill-rule="nonzero" fill="#ffffff" stroke="none" />
  <path d="M 13.5 759.5  C 17.42 759.5  20.5 762.58  20.5 766.5  C 20.5 770.42  17.42 773.5  13.5 773.5  C 9.58 773.5  6.5 770.42  6.5 766.5  C 6.5 762.58  9.58 759.5  13.5 759.5  Z " stroke-width="1" stroke="#797979" fill="none" />
  <path d="M 13.5 770.25  C 11.4 770.25  9.75 768.6  9.75 766.5  C 9.75 764.4  11.4 762.75  13.5 762.75  C 15.6 762.75  17.25 764.4  17.25 766.5  C 17.25 768.6  15.6 770.25  13.5 770.25  " fill-rule="nonzero" fill="#797979" stroke="none" />
</svg>