<?xml version="1.0" encoding="utf-8"?>
<svg version="1.1" xmlns:xlink="http://www.w3.org/1999/xlink" width="15px" height="15px" viewBox="6 218  15 15" xmlns="http://www.w3.org/2000/svg">
  <path d="M 13.5 218  C 17.700000000000003 218  21 221.3  21 225.5  C 21 229.7  17.700000000000003 233  13.5 233  C 9.3 233  6 229.7  6 225.5  C 6 221.3  9.3 218  13.5 218  Z " fill-rule="nonzero" fill="#f0f0f0" stroke="none" />
  <path d="M 13.5 218.5  C 17.42 218.5  20.5 221.58  20.5 225.5  C 20.5 229.42  17.42 232.5  13.5 232.5  C 9.58 232.5  6.5 229.42  6.5 225.5  C 6.5 221.58  9.58 218.5  13.5 218.5  Z " stroke-width="1" stroke="#797979" fill="none" />
  <path d="M 13.5 229.25  C 11.4 229.25  9.75 227.6  9.75 225.5  C 9.75 223.4  11.4 221.75  13.5 221.75  C 15.6 221.75  17.25 223.4  17.25 225.5  C 17.25 227.6  15.6 229.25  13.5 229.25  " fill-rule="nonzero" fill="#797979" stroke="none" />
</svg>