<?xml version="1.0" encoding="utf-8"?>
<svg version="1.1" xmlns:xlink="http://www.w3.org/1999/xlink" width="15px" height="15px" viewBox="6 488  15 15" xmlns="http://www.w3.org/2000/svg">
  <path d="M 13.5 488  C 17.700000000000003 488  21 491.3  21 495.5  C 21 499.7  17.700000000000003 503  13.5 503  C 9.3 503  6 499.7  6 495.5  C 6 491.3  9.3 488  13.5 488  Z " fill-rule="nonzero" fill="#ffffff" stroke="none" />
  <path d="M 13.5 488.5  C 17.42 488.5  20.5 491.58  20.5 495.5  C 20.5 499.42  17.42 502.5  13.5 502.5  C 9.58 502.5  6.5 499.42  6.5 495.5  C 6.5 491.58  9.58 488.5  13.5 488.5  Z " stroke-width="1" stroke="#797979" fill="none" />
  <path d="M 13.5 499.25  C 11.4 499.25  9.75 497.6  9.75 495.5  C 9.75 493.4  11.4 491.75  13.5 491.75  C 15.6 491.75  17.25 493.4  17.25 495.5  C 17.25 497.6  15.6 499.25  13.5 499.25  " fill-rule="nonzero" fill="#797979" stroke="none" />
</svg>