<?xml version="1.0" encoding="utf-8"?>
<svg version="1.1" xmlns:xlink="http://www.w3.org/1999/xlink" width="15px" height="15px" viewBox="6 864  15 15" xmlns="http://www.w3.org/2000/svg">
  <path d="M 13.5 864  C 17.700000000000003 864  21 867.3  21 871.5  C 21 875.7  17.700000000000003 879  13.5 879  C 9.3 879  6 875.7  6 871.5  C 6 867.3  9.3 864  13.5 864  Z " fill-rule="nonzero" fill="#f0f0f0" stroke="none" />
  <path d="M 13.5 864.5  C 17.42 864.5  20.5 867.58  20.5 871.5  C 20.5 875.42  17.42 878.5  13.5 878.5  C 9.58 878.5  6.5 875.42  6.5 871.5  C 6.5 867.58  9.58 864.5  13.5 864.5  Z " stroke-width="1" stroke="#797979" fill="none" />
  <path d="M 13.5 875.25  C 11.4 875.25  9.75 873.6  9.75 871.5  C 9.75 869.4  11.4 867.75  13.5 867.75  C 15.6 867.75  17.25 869.4  17.25 871.5  C 17.25 873.6  15.6 875.25  13.5 875.25  " fill-rule="nonzero" fill="#797979" stroke="none" />
</svg>