<?xml version="1.0" encoding="utf-8"?>
<svg version="1.1" xmlns:xlink="http://www.w3.org/1999/xlink" width="15px" height="15px" viewBox="6 814.5  15 15" xmlns="http://www.w3.org/2000/svg">
  <path d="M 13.5 814.5  C 17.700000000000003 814.5  21 817.8  21 822  C 21 826.2  17.700000000000003 829.5  13.5 829.5  C 9.3 829.5  6 826.2  6 822  C 6 817.8  9.3 814.5  13.5 814.5  Z " fill-rule="nonzero" fill="#ffffff" stroke="none" />
  <path d="M 13.5 815  C 17.42 815  20.5 818.08  20.5 822  C 20.5 825.92  17.42 829  13.5 829  C 9.58 829  6.5 825.92  6.5 822  C 6.5 818.08  9.58 815  13.5 815  Z " stroke-width="1" stroke="#797979" fill="none" />
  <path d="M 13.5 825.75  C 11.4 825.75  9.75 824.1  9.75 822  C 9.75 819.9  11.4 818.25  13.5 818.25  C 15.6 818.25  17.25 819.9  17.25 822  C 17.25 824.1  15.6 825.75  13.5 825.75  " fill-rule="nonzero" fill="#797979" stroke="none" />
</svg>