<?xml version="1.0" encoding="utf-8"?>
<svg version="1.1" xmlns:xlink="http://www.w3.org/1999/xlink" width="15px" height="15px" viewBox="6 1160  15 15" xmlns="http://www.w3.org/2000/svg">
  <path d="M 13.5 1160  C 17.700000000000003 1160  21 1163.3  21 1167.5  C 21 1171.7  17.700000000000003 1175  13.5 1175  C 9.3 1175  6 1171.7  6 1167.5  C 6 1163.3  9.3 1160  13.5 1160  Z " fill-rule="nonzero" fill="#f0f0f0" stroke="none" />
  <path d="M 13.5 1160.5  C 17.42 1160.5  20.5 1163.58  20.5 1167.5  C 20.5 1171.42  17.42 1174.5  13.5 1174.5  C 9.58 1174.5  6.5 1171.42  6.5 1167.5  C 6.5 1163.58  9.58 1160.5  13.5 1160.5  Z " stroke-width="1" stroke="#797979" fill="none" />
  <path d="M 13.5 1171.25  C 11.4 1171.25  9.75 1169.6  9.75 1167.5  C 9.75 1165.4  11.4 1163.75  13.5 1163.75  C 15.6 1163.75  17.25 1165.4  17.25 1167.5  C 17.25 1169.6  15.6 1171.25  13.5 1171.25  " fill-rule="nonzero" fill="#797979" stroke="none" />
</svg>