<?xml version="1.0" encoding="utf-8"?>
<svg version="1.1" xmlns:xlink="http://www.w3.org/1999/xlink" width="15px" height="15px" viewBox="6 313  15 15" xmlns="http://www.w3.org/2000/svg">
  <path d="M 13.5 313  C 17.700000000000003 313  21 316.3  21 320.5  C 21 324.7  17.700000000000003 328  13.5 328  C 9.3 328  6 324.7  6 320.5  C 6 316.3  9.3 313  13.5 313  Z " fill-rule="nonzero" fill="#ffffff" stroke="none" />
  <path d="M 13.5 313.5  C 17.42 313.5  20.5 316.58  20.5 320.5  C 20.5 324.42  17.42 327.5  13.5 327.5  C 9.58 327.5  6.5 324.42  6.5 320.5  C 6.5 316.58  9.58 313.5  13.5 313.5  Z " stroke-width="1" stroke="#797979" fill="none" />
  <path d="M 13.5 324.25  C 11.4 324.25  9.75 322.6  9.75 320.5  C 9.75 318.4  11.4 316.75  13.5 316.75  C 15.6 316.75  17.25 318.4  17.25 320.5  C 17.25 322.6  15.6 324.25  13.5 324.25  " fill-rule="nonzero" fill="#797979" stroke="none" />
</svg>