<?xml version="1.0" encoding="utf-8"?>
<svg version="1.1" xmlns:xlink="http://www.w3.org/1999/xlink" width="15px" height="15px" viewBox="6 520.5  15 15" xmlns="http://www.w3.org/2000/svg">
  <path d="M 13.5 520.5  C 17.700000000000003 520.5  21 523.8  21 528  C 21 532.2  17.700000000000003 535.5  13.5 535.5  C 9.3 535.5  6 532.2  6 528  C 6 523.8  9.3 520.5  13.5 520.5  Z " fill-rule="nonzero" fill="#f0f0f0" stroke="none" />
  <path d="M 13.5 521  C 17.42 521  20.5 524.08  20.5 528  C 20.5 531.92  17.42 535  13.5 535  C 9.58 535  6.5 531.92  6.5 528  C 6.5 524.08  9.58 521  13.5 521  Z " stroke-width="1" stroke="#797979" fill="none" />
  <path d="M 13.5 531.75  C 11.4 531.75  9.75 530.1  9.75 528  C 9.75 525.9  11.4 524.25  13.5 524.25  C 15.6 524.25  17.25 525.9  17.25 528  C 17.25 530.1  15.6 531.75  13.5 531.75  " fill-rule="nonzero" fill="#797979" stroke="none" />
</svg>