<?xml version="1.0" encoding="utf-8"?>
<svg version="1.1" xmlns:xlink="http://www.w3.org/1999/xlink" width="15px" height="15px" viewBox="6 372  15 15" xmlns="http://www.w3.org/2000/svg">
  <path d="M 13.5 372  C 17.700000000000003 372  21 375.3  21 379.5  C 21 383.7  17.700000000000003 387  13.5 387  C 9.3 387  6 383.7  6 379.5  C 6 375.3  9.3 372  13.5 372  Z " fill-rule="nonzero" fill="#ffffff" stroke="none" />
  <path d="M 13.5 372.5  C 17.42 372.5  20.5 375.58  20.5 379.5  C 20.5 383.42  17.42 386.5  13.5 386.5  C 9.58 386.5  6.5 383.42  6.5 379.5  C 6.5 375.58  9.58 372.5  13.5 372.5  Z " stroke-width="1" stroke="#797979" fill="none" />
  <path d="M 13.5 383.25  C 11.4 383.25  9.75 381.6  9.75 379.5  C 9.75 377.4  11.4 375.75  13.5 375.75  C 15.6 375.75  17.25 377.4  17.25 379.5  C 17.25 381.6  15.6 383.25  13.5 383.25  " fill-rule="nonzero" fill="#797979" stroke="none" />
</svg>