<?xml version="1.0" encoding="utf-8"?>
<svg version="1.1" xmlns:xlink="http://www.w3.org/1999/xlink" width="15px" height="15px" viewBox="6 1323  15 15" xmlns="http://www.w3.org/2000/svg">
  <path d="M 13.5 1323  C 17.700000000000003 1323  21 1326.3  21 1330.5  C 21 1334.7  17.700000000000003 1338  13.5 1338  C 9.3 1338  6 1334.7  6 1330.5  C 6 1326.3  9.3 1323  13.5 1323  Z " fill-rule="nonzero" fill="#ffffff" stroke="none" />
  <path d="M 13.5 1323.5  C 17.42 1323.5  20.5 1326.58  20.5 1330.5  C 20.5 1334.42  17.42 1337.5  13.5 1337.5  C 9.58 1337.5  6.5 1334.42  6.5 1330.5  C 6.5 1326.58  9.58 1323.5  13.5 1323.5  Z " stroke-width="1" stroke="#797979" fill="none" />
  <path d="M 13.5 1334.25  C 11.4 1334.25  9.75 1332.6  9.75 1330.5  C 9.75 1328.4  11.4 1326.75  13.5 1326.75  C 15.6 1326.75  17.25 1328.4  17.25 1330.5  C 17.25 1332.6  15.6 1334.25  13.5 1334.25  " fill-rule="nonzero" fill="#797979" stroke="none" />
</svg>