<?xml version="1.0" encoding="utf-8"?>
<svg version="1.1" xmlns:xlink="http://www.w3.org/1999/xlink" width="36px" height="34px" xmlns="http://www.w3.org/2000/svg">
  <g transform="matrix(1 0 0 1 -8 -13 )">
    <path d="M 29.5546875 19.412760416666668  C 29.851562500000004 19.13237847222222  30 18.80034722222222  30 18.416666666666668  L 30 15.583333333333334  C 30 15.199652777777775  29.851562500000004 14.867621527777775  29.5546875 14.587239583333334  C 29.257812500000004 14.30685763888889  28.906250000000004 14.166666666666666  28.5 14.166666666666666  L 16.734375 14.166666666666666  L 21.1640625 9.983072916666666  C 21.4609375 9.702690972222221  21.609375 9.370659722222221  21.609375 8.986979166666666  C 21.609375 8.603298611111107  21.4609375 8.271267361111107  21.1640625 7.990885416666665  L 19.03125 5.9765625  C 18.75 5.7109375  18.3984375 5.578125  17.9765625 5.578125  C 17.5546875 5.578125  17.203125 5.7109375  16.921875 5.9765625  L 8.4375 13.989583333333334  L 6.3046875 16.00390625  C 6.0234375 16.26953125  5.8828125 16.6015625  5.8828125 17  C 5.8828125 17.3984375  6.0234375 17.73046875  6.3046875 17.99609375  L 8.4375 20.010416666666668  L 16.921875 28.0234375  C 17.203125 28.2890625  17.5546875 28.421875  17.9765625 28.421875  C 18.3984375 28.421875  18.75 28.2890625  19.03125 28.0234375  L 21.1640625 26.009114583333336  C 21.445312500000004 25.743489583333336  21.585937500000004 25.411458333333332  21.5859375 25.013020833333332  C 21.585937500000004 24.614583333333332  21.445312500000004 24.282552083333332  21.1640625 24.016927083333332  L 16.734375 19.833333333333332  L 28.5 19.833333333333332  C 28.906250000000004 19.833333333333332  29.257812500000004 19.69314236111111  29.5546875 19.412760416666668  Z M 33.5859375 8.466796875  C 35.19531249999999 11.071397569444441  36 13.915798611111107  36 17  C 36 20.08420138888889  35.19531249999999 22.92860243055555  33.5859375 25.533203125  C 31.976562500000004 28.137803819444446  29.79296875 30.200086805555554  27.03515625 31.720052083333336  C 24.277343750000004 33.240017361111114  21.265625 34  18 34  C 14.734375000000002 34  11.72265625 33.240017361111114  8.96484375 31.720052083333336  C 6.207031250000001 30.200086805555554  4.0234375 28.137803819444446  2.4140625 25.533203125  C 0.8046874999999999 22.92860243055555  0 20.08420138888889  0 17  C 0 13.915798611111107  0.8046874999999999 11.071397569444441  2.4140625 8.466796875  C 4.0234375 5.862196180555555  6.207031250000001 3.799913194444441  8.96484375 2.279947916666665  C 11.72265625 0.759982638888886  14.734375000000002 0  18 0  C 21.265625 0  24.277343750000004 0.759982638888886  27.03515625 2.279947916666665  C 29.79296875 3.799913194444441  31.976562500000004 5.862196180555555  33.5859375 8.466796875  Z " fill-rule="nonzero" fill="#000000" stroke="none" transform="matrix(1 0 0 1 8 13 )" />
  </g>
</svg>