<?xml version="1.0" encoding="utf-8"?>
<svg version="1.1" xmlns:xlink="http://www.w3.org/1999/xlink" width="15px" height="15px" viewBox="-1 132  15 15" xmlns="http://www.w3.org/2000/svg">
  <path d="M 6.5 132  C 10.700000000000001 132  14 135.3  14 139.5  C 14 143.7  10.700000000000001 147  6.5 147  C 2.3 147  -1 143.7  -1 139.5  C -1 135.3  2.3 132  6.5 132  Z " fill-rule="nonzero" fill="#ffffff" stroke="none" />
  <path d="M 6.5 132.5  C 10.42 132.5  13.5 135.58  13.5 139.5  C 13.5 143.42  10.42 146.5  6.5 146.5  C 2.5799999999999996 146.5  -0.5 143.42  -0.5 139.5  C -0.5 135.58  2.5799999999999996 132.5  6.5 132.5  Z " stroke-width="1" stroke="#797979" fill="none" />
  <path d="M 6.5 143.25  C 4.4 143.25  2.75 141.6  2.75 139.5  C 2.75 137.4  4.4 135.75  6.5 135.75  C 8.6 135.75  10.25 137.4  10.25 139.5  C 10.25 141.6  8.6 143.25  6.5 143.25  " fill-rule="nonzero" fill="#797979" stroke="none" />
</svg>