<?xml version="1.0" encoding="utf-8"?>
<svg version="1.1" xmlns:xlink="http://www.w3.org/1999/xlink" width="15px" height="15px" viewBox="-1 450  15 15" xmlns="http://www.w3.org/2000/svg">
  <path d="M 6.5 450  C 10.700000000000001 450  14 453.3  14 457.5  C 14 461.7  10.700000000000001 465  6.5 465  C 2.3 465  -1 461.7  -1 457.5  C -1 453.3  2.3 450  6.5 450  Z " fill-rule="nonzero" fill="#f0f0f0" stroke="none" />
  <path d="M 6.5 450.5  C 10.42 450.5  13.5 453.58  13.5 457.5  C 13.5 461.42  10.42 464.5  6.5 464.5  C 2.5799999999999996 464.5  -0.5 461.42  -0.5 457.5  C -0.5 453.58  2.5799999999999996 450.5  6.5 450.5  Z " stroke-width="1" stroke="#797979" fill="none" />
  <path d="M 6.5 461.25  C 4.4 461.25  2.75 459.6  2.75 457.5  C 2.75 455.4  4.4 453.75  6.5 453.75  C 8.6 453.75  10.25 455.4  10.25 457.5  C 10.25 459.6  8.6 461.25  6.5 461.25  " fill-rule="nonzero" fill="#797979" stroke="none" />
</svg>