<?xml version="1.0" encoding="utf-8"?>
<svg version="1.1" xmlns:xlink="http://www.w3.org/1999/xlink" width="15px" height="15px" viewBox="-1 381  15 15" xmlns="http://www.w3.org/2000/svg">
  <path d="M 6.5 381  C 10.700000000000001 381  14 384.3  14 388.5  C 14 392.7  10.700000000000001 396  6.5 396  C 2.3 396  -1 392.7  -1 388.5  C -1 384.3  2.3 381  6.5 381  Z " fill-rule="nonzero" fill="#f0f0f0" stroke="none" />
  <path d="M 6.5 381.5  C 10.42 381.5  13.5 384.58  13.5 388.5  C 13.5 392.42  10.42 395.5  6.5 395.5  C 2.5799999999999996 395.5  -0.5 392.42  -0.5 388.5  C -0.5 384.58  2.5799999999999996 381.5  6.5 381.5  Z " stroke-width="1" stroke="#797979" fill="none" />
  <path d="M 6.5 392.25  C 4.4 392.25  2.75 390.6  2.75 388.5  C 2.75 386.4  4.4 384.75  6.5 384.75  C 8.6 384.75  10.25 386.4  10.25 388.5  C 10.25 390.6  8.6 392.25  6.5 392.25  " fill-rule="nonzero" fill="#797979" stroke="none" />
</svg>