<?xml version="1.0" encoding="utf-8"?>
<svg version="1.1" xmlns:xlink="http://www.w3.org/1999/xlink" width="15px" height="15px" viewBox="-1 581  15 15" xmlns="http://www.w3.org/2000/svg">
  <path d="M 6.5 581  C 10.700000000000001 581  14 584.3  14 588.5  C 14 592.7  10.700000000000001 596  6.5 596  C 2.3 596  -1 592.7  -1 588.5  C -1 584.3  2.3 581  6.5 581  Z " fill-rule="nonzero" fill="#f0f0f0" stroke="none" />
  <path d="M 6.5 581.5  C 10.42 581.5  13.5 584.58  13.5 588.5  C 13.5 592.42  10.42 595.5  6.5 595.5  C 2.5799999999999996 595.5  -0.5 592.42  -0.5 588.5  C -0.5 584.58  2.5799999999999996 581.5  6.5 581.5  Z " stroke-width="1" stroke="#797979" fill="none" />
  <path d="M 6.5 592.25  C 4.4 592.25  2.75 590.6  2.75 588.5  C 2.75 586.4  4.4 584.75  6.5 584.75  C 8.6 584.75  10.25 586.4  10.25 588.5  C 10.25 590.6  8.6 592.25  6.5 592.25  " fill-rule="nonzero" fill="#797979" stroke="none" />
</svg>