<?xml version="1.0" encoding="utf-8"?>
<svg version="1.1" xmlns:xlink="http://www.w3.org/1999/xlink" width="15px" height="15px" viewBox="-1 166  15 15" xmlns="http://www.w3.org/2000/svg">
  <path d="M 6.5 166  C 10.700000000000001 166  14 169.3  14 173.5  C 14 177.7  10.700000000000001 181  6.5 181  C 2.3 181  -1 177.7  -1 173.5  C -1 169.3  2.3 166  6.5 166  Z " fill-rule="nonzero" fill="#f0f0f0" stroke="none" />
  <path d="M 6.5 166.5  C 10.42 166.5  13.5 169.58  13.5 173.5  C 13.5 177.42  10.42 180.5  6.5 180.5  C 2.5799999999999996 180.5  -0.5 177.42  -0.5 173.5  C -0.5 169.58  2.5799999999999996 166.5  6.5 166.5  Z " stroke-width="1" stroke="#797979" fill="none" />
  <path d="M 6.5 177.25  C 4.4 177.25  2.75 175.6  2.75 173.5  C 2.75 171.4  4.4 169.75  6.5 169.75  C 8.6 169.75  10.25 171.4  10.25 173.5  C 10.25 175.6  8.6 177.25  6.5 177.25  " fill-rule="nonzero" fill="#797979" stroke="none" />
</svg>