<?xml version="1.0" encoding="utf-8"?>
<svg version="1.1" xmlns:xlink="http://www.w3.org/1999/xlink" width="105px" height="105px" xmlns="http://www.w3.org/2000/svg">
  <g transform="matrix(1 0 0 1 -20 -18 )">
    <path d="M 97.958984375 26.1474609375  C 102.65299479166666 34.19108072916666  105 42.97526041666665  105 52.5  C 105 62.024739583333336  102.65299479166666 70.80891927083331  97.958984375 78.8525390625  C 93.26497395833334 86.89615885416667  86.89615885416667 93.26497395833333  78.8525390625 97.958984375  C 70.80891927083334 102.65299479166667  62.024739583333336 105  52.5 105  C 42.97526041666667 105  34.19108072916667 102.65299479166667  26.1474609375 97.958984375  C 18.103841145833336 93.26497395833333  11.735026041666668 86.89615885416667  7.041015625000001 78.8525390625  C 2.347005208333333 70.80891927083331  0 62.024739583333336  0 52.5  C 0 42.97526041666665  2.347005208333333 34.19108072916666  7.041015625000001 26.1474609375  C 11.735026041666668 18.103841145833332  18.103841145833336 11.735026041666657  26.1474609375 7.0410156249999964  C 34.19108072916667 2.347005208333324  42.97526041666667 0  52.5 0  C 62.024739583333336 0  70.80891927083334 2.347005208333324  78.8525390625 7.0410156249999964  C 86.89615885416667 11.735026041666657  93.26497395833334 18.103841145833332  97.958984375 26.1474609375  Z " fill-rule="nonzero" fill="#000000" stroke="none" fill-opacity="0.9921568627450981" transform="matrix(1 0 0 1 20 18 )" />
  </g>
</svg>