<?xml version="1.0" encoding="utf-8"?>
<svg version="1.1" xmlns:xlink="http://www.w3.org/1999/xlink" width="85px" height="85px" xmlns="http://www.w3.org/2000/svg">
  <g transform="matrix(1 0 0 1 -52 -111 )">
    <path d="M 79.30013020833334 21.1669921875  C 83.10004340277777 27.678493923611104  85 34.789496527777764  85 42.5  C 85 50.21050347222222  83.10004340277777 57.32150607638888  79.30013020833334 63.8330078125  C 75.5002170138889 70.34450954861111  70.34450954861111 75.50021701388889  63.8330078125 79.30013020833334  C 57.3215060763889 83.10004340277779  50.21050347222222 85  42.5 85  C 34.78949652777778 85  27.67849392361111 83.10004340277779  21.1669921875 79.30013020833334  C 14.655490451388891 75.50021701388889  9.499782986111112 70.34450954861111  5.699869791666667 63.8330078125  C 1.8999565972222219 57.32150607638888  0 50.21050347222222  0 42.5  C 0 34.789496527777764  1.8999565972222219 27.678493923611104  5.699869791666667 21.1669921875  C 9.499782986111112 14.655490451388888  14.655490451388891 9.499782986111104  21.1669921875 5.699869791666663  C 27.67849392361111 1.8999565972222148  34.78949652777778 0  42.5 0  C 50.21050347222222 0  57.3215060763889 1.8999565972222148  63.8330078125 5.699869791666663  C 70.34450954861111 9.499782986111104  75.5002170138889 14.655490451388888  79.30013020833334 21.1669921875  Z " fill-rule="nonzero" fill="#ffffff" stroke="none" transform="matrix(1 0 0 1 52 111 )" />
  </g>
</svg>