<?xml version="1.0" encoding="utf-8"?>
<svg version="1.1" xmlns:xlink="http://www.w3.org/1999/xlink" width="15px" height="15px" viewBox="6 1131  15 15" xmlns="http://www.w3.org/2000/svg">
  <path d="M 13.5 1131  C 17.700000000000003 1131  21 1134.3  21 1138.5  C 21 1142.7  17.700000000000003 1146  13.5 1146  C 9.3 1146  6 1142.7  6 1138.5  C 6 1134.3  9.3 1131  13.5 1131  Z " fill-rule="nonzero" fill="#ffffff" stroke="none" />
  <path d="M 13.5 1131.5  C 17.42 1131.5  20.5 1134.58  20.5 1138.5  C 20.5 1142.42  17.42 1145.5  13.5 1145.5  C 9.58 1145.5  6.5 1142.42  6.5 1138.5  C 6.5 1134.58  9.58 1131.5  13.5 1131.5  Z " stroke-width="1" stroke="#797979" fill="none" />
  <path d="M 13.5 1142.25  C 11.4 1142.25  9.75 1140.6  9.75 1138.5  C 9.75 1136.4  11.4 1134.75  13.5 1134.75  C 15.6 1134.75  17.25 1136.4  17.25 1138.5  C 17.25 1140.6  15.6 1142.25  13.5 1142.25  " fill-rule="nonzero" fill="#797979" stroke="none" />
</svg>