<?xml version="1.0" encoding="utf-8"?>
<svg version="1.1" xmlns:xlink="http://www.w3.org/1999/xlink" width="15px" height="15px" viewBox="6 446  15 15" xmlns="http://www.w3.org/2000/svg">
  <path d="M 13.5 446  C 17.700000000000003 446  21 449.3  21 453.5  C 21 457.7  17.700000000000003 461  13.5 461  C 9.3 461  6 457.7  6 453.5  C 6 449.3  9.3 446  13.5 446  Z " fill-rule="nonzero" fill="#ffffff" stroke="none" />
  <path d="M 13.5 446.5  C 17.42 446.5  20.5 449.58  20.5 453.5  C 20.5 457.42  17.42 460.5  13.5 460.5  C 9.58 460.5  6.5 457.42  6.5 453.5  C 6.5 449.58  9.58 446.5  13.5 446.5  Z " stroke-width="1" stroke="#797979" fill="none" />
  <path d="M 13.5 457.25  C 11.4 457.25  9.75 455.6  9.75 453.5  C 9.75 451.4  11.4 449.75  13.5 449.75  C 15.6 449.75  17.25 451.4  17.25 453.5  C 17.25 455.6  15.6 457.25  13.5 457.25  " fill-rule="nonzero" fill="#797979" stroke="none" />
</svg>