<?xml version="1.0" encoding="utf-8"?>
<svg version="1.1" xmlns:xlink="http://www.w3.org/1999/xlink" width="15px" height="15px" viewBox="6 673  15 15" xmlns="http://www.w3.org/2000/svg">
  <path d="M 13.5 673  C 17.700000000000003 673  21 676.3  21 680.5  C 21 684.7  17.700000000000003 688  13.5 688  C 9.3 688  6 684.7  6 680.5  C 6 676.3  9.3 673  13.5 673  Z " fill-rule="nonzero" fill="#ffffff" stroke="none" />
  <path d="M 13.5 673.5  C 17.42 673.5  20.5 676.58  20.5 680.5  C 20.5 684.42  17.42 687.5  13.5 687.5  C 9.58 687.5  6.5 684.42  6.5 680.5  C 6.5 676.58  9.58 673.5  13.5 673.5  Z " stroke-width="1" stroke="#797979" fill="none" />
  <path d="M 13.5 684.25  C 11.4 684.25  9.75 682.6  9.75 680.5  C 9.75 678.4  11.4 676.75  13.5 676.75  C 15.6 676.75  17.25 678.4  17.25 680.5  C 17.25 682.6  15.6 684.25  13.5 684.25  " fill-rule="nonzero" fill="#797979" stroke="none" />
</svg>