<?xml version="1.0" encoding="utf-8"?>
<svg version="1.1" xmlns:xlink="http://www.w3.org/1999/xlink" width="15px" height="15px" viewBox="6 947  15 15" xmlns="http://www.w3.org/2000/svg">
  <path d="M 13.5 947  C 17.700000000000003 947  21 950.3  21 954.5  C 21 958.7  17.700000000000003 962  13.5 962  C 9.3 962  6 958.7  6 954.5  C 6 950.3  9.3 947  13.5 947  Z " fill-rule="nonzero" fill="#f0f0f0" stroke="none" />
  <path d="M 13.5 947.5  C 17.42 947.5  20.5 950.58  20.5 954.5  C 20.5 958.42  17.42 961.5  13.5 961.5  C 9.58 961.5  6.5 958.42  6.5 954.5  C 6.5 950.58  9.58 947.5  13.5 947.5  Z " stroke-width="1" stroke="#797979" fill="none" />
  <path d="M 13.5 958.25  C 11.4 958.25  9.75 956.6  9.75 954.5  C 9.75 952.4  11.4 950.75  13.5 950.75  C 15.6 950.75  17.25 952.4  17.25 954.5  C 17.25 956.6  15.6 958.25  13.5 958.25  " fill-rule="nonzero" fill="#797979" stroke="none" />
</svg>