<?xml version="1.0" encoding="utf-8"?>
<svg version="1.1" xmlns:xlink="http://www.w3.org/1999/xlink" width="15px" height="15px" viewBox="6 343  15 15" xmlns="http://www.w3.org/2000/svg">
  <path d="M 13.5 343  C 17.700000000000003 343  21 346.3  21 350.5  C 21 354.7  17.700000000000003 358  13.5 358  C 9.3 358  6 354.7  6 350.5  C 6 346.3  9.3 343  13.5 343  Z " fill-rule="nonzero" fill="#ffffff" stroke="none" />
  <path d="M 13.5 343.5  C 17.42 343.5  20.5 346.58  20.5 350.5  C 20.5 354.42  17.42 357.5  13.5 357.5  C 9.58 357.5  6.5 354.42  6.5 350.5  C 6.5 346.58  9.58 343.5  13.5 343.5  Z " stroke-width="1" stroke="#797979" fill="none" />
  <path d="M 13.5 354.25  C 11.4 354.25  9.75 352.6  9.75 350.5  C 9.75 348.4  11.4 346.75  13.5 346.75  C 15.6 346.75  17.25 348.4  17.25 350.5  C 17.25 352.6  15.6 354.25  13.5 354.25  " fill-rule="nonzero" fill="#797979" stroke="none" />
</svg>