<?xml version="1.0" encoding="utf-8"?>
<svg version="1.1" xmlns:xlink="http://www.w3.org/1999/xlink" width="15px" height="15px" viewBox="6 611  15 15" xmlns="http://www.w3.org/2000/svg">
  <path d="M 13.5 611  C 17.700000000000003 611  21 614.3  21 618.5  C 21 622.7  17.700000000000003 626  13.5 626  C 9.3 626  6 622.7  6 618.5  C 6 614.3  9.3 611  13.5 611  Z " fill-rule="nonzero" fill="#ffffff" stroke="none" />
  <path d="M 13.5 611.5  C 17.42 611.5  20.5 614.58  20.5 618.5  C 20.5 622.42  17.42 625.5  13.5 625.5  C 9.58 625.5  6.5 622.42  6.5 618.5  C 6.5 614.58  9.58 611.5  13.5 611.5  Z " stroke-width="1" stroke="#797979" fill="none" />
  <path d="M 13.5 622.25  C 11.4 622.25  9.75 620.6  9.75 618.5  C 9.75 616.4  11.4 614.75  13.5 614.75  C 15.6 614.75  17.25 616.4  17.25 618.5  C 17.25 620.6  15.6 622.25  13.5 622.25  " fill-rule="nonzero" fill="#797979" stroke="none" />
</svg>