<?xml version="1.0" encoding="utf-8"?>
<svg version="1.1" xmlns:xlink="http://www.w3.org/1999/xlink" width="15px" height="15px" viewBox="6 977  15 15" xmlns="http://www.w3.org/2000/svg">
  <path d="M 13.5 977  C 17.700000000000003 977  21 980.3  21 984.5  C 21 988.7  17.700000000000003 992  13.5 992  C 9.3 992  6 988.7  6 984.5  C 6 980.3  9.3 977  13.5 977  Z " fill-rule="nonzero" fill="#ffffff" stroke="none" />
  <path d="M 13.5 977.5  C 17.42 977.5  20.5 980.58  20.5 984.5  C 20.5 988.42  17.42 991.5  13.5 991.5  C 9.58 991.5  6.5 988.42  6.5 984.5  C 6.5 980.58  9.58 977.5  13.5 977.5  Z " stroke-width="1" stroke="#797979" fill="none" />
  <path d="M 13.5 988.25  C 11.4 988.25  9.75 986.6  9.75 984.5  C 9.75 982.4  11.4 980.75  13.5 980.75  C 15.6 980.75  17.25 982.4  17.25 984.5  C 17.25 986.6  15.6 988.25  13.5 988.25  " fill-rule="nonzero" fill="#797979" stroke="none" />
</svg>