<?xml version="1.0" encoding="utf-8"?>
<svg version="1.1" xmlns:xlink="http://www.w3.org/1999/xlink" width="250px" height="250px" xmlns="http://www.w3.org/2000/svg">
  <g transform="matrix(1 0 0 1 -65 -50 )">
    <path d="M 233.23567708333334 62.255859375  C 244.4118923611111 81.40733506944441  250 102.32204861111107  250 125  C 250 147.67795138888889  244.4118923611111 168.59266493055551  233.23567708333334 187.744140625  C 222.05946180555557 206.89561631944446  206.89561631944446 222.05946180555554  187.744140625 233.23567708333334  C 168.59266493055557 244.41189236111114  147.67795138888889 250  125 250  C 102.32204861111111 250  81.40733506944444 244.41189236111114  62.255859375 233.23567708333334  C 43.10438368055556 222.05946180555554  27.940538194444446 206.89561631944446  16.764322916666668 187.744140625  C 5.588107638888888 168.59266493055551  0 147.67795138888889  0 125  C 0 102.32204861111107  5.588107638888888 81.40733506944441  16.764322916666668 62.255859375  C 27.940538194444446 43.10438368055555  43.10438368055556 27.94053819444442  62.255859375 16.764322916666657  C 81.40733506944444 5.588107638888867  102.32204861111111 0  125 0  C 147.67795138888889 0  168.59266493055557 5.588107638888867  187.744140625 16.764322916666657  C 206.89561631944446 27.94053819444442  222.05946180555557 43.10438368055555  233.23567708333334 62.255859375  Z " fill-rule="nonzero" fill="#c6cccb" stroke="none" transform="matrix(1 0 0 1 65 50 )" />
  </g>
</svg>