<?xml version="1.0" encoding="utf-8"?>
<svg version="1.1" xmlns:xlink="http://www.w3.org/1999/xlink" width="48px" height="45px" xmlns="http://www.w3.org/2000/svg">
  <g transform="matrix(1 0 0 1 -13 -10 )">
    <path d="M 39.40625 25.693359375000004  C 39.802083333333336 25.322265624999996  40 24.882812499999996  40 24.375000000000004  L 40 20.625  C 40 20.117187499999996  39.802083333333336 19.677734374999996  39.40625 19.306640625  C 39.01041666666667 18.935546875  38.54166666666667 18.75  38 19  L 22.3125 19  L 28.21875 13.212890624999998  C 28.614583333333336 12.841796874999998  28.8125 12.402343749999998  28.8125 11.894531249999998  C 28.8125 11.386718749999995  28.614583333333336 10.947265624999995  28.21875 10.576171874999998  L 25.375 7.91015625  C 25 7.55859375  24.53125 7.3828125  23.96875 7.3828125  C 23.40625 7.3828125  22.9375 7.55859375  22.5625 7.91015625  L 11.25 18.515625  L 8.40625 21.181640625  C 8.03125 21.533203125  7.84375 21.97265625  7.84375 22.5  C 7.84375 23.02734375  8.03125 23.466796875  8.40625 23.818359375  L 11.25 26.484375000000004  L 22.5625 37.08984375  C 22.9375 37.44140625  23.40625 37.6171875  23.96875 37.6171875  C 24.53125 37.6171875  25 37.44140625  25.375 37.08984375  L 28.21875 34.423828125  C 28.593750000000007 34.072265625  28.781250000000007 33.6328125  28.78125 33.10546875  C 28.781250000000007 32.578125  28.593750000000007 32.138671875  28.21875 31.787109374999996  L 22.3125 26  L 38 26  C 38.54166666666667 26.249999999999996  39.01041666666667 26.064453125  39.40625 25.693359375000004  Z M 44.78125 11.2060546875  C 46.92708333333333 14.653320312499996  48 18.417968749999993  48 22.5  C 48 26.58203125  46.92708333333333 30.346679687499993  44.78125 33.7939453125  C 42.63541666666667 37.2412109375  39.723958333333336 39.970703125  36.046875 41.982421875  C 32.36979166666667 43.99414062500001  28.354166666666668 45  24 45  C 19.645833333333336 45  15.630208333333334 43.99414062500001  11.953125 41.982421875  C 8.276041666666668 39.970703125  5.364583333333334 37.2412109375  3.21875 33.7939453125  C 1.0729166666666665 30.346679687499993  0 26.58203125  0 22.5  C 0 18.417968749999993  1.0729166666666665 14.653320312499996  3.21875 11.2060546875  C 5.364583333333334 7.758789062499999  8.276041666666668 5.029296874999996  11.953125 3.0175781249999982  C 15.630208333333334 1.005859374999996  19.645833333333336 0  24 0  C 28.354166666666668 0  32.36979166666667 1.005859374999996  36.046875 3.0175781249999982  C 39.723958333333336 5.029296874999996  42.63541666666667 7.758789062499999  44.78125 11.2060546875  Z " fill-rule="nonzero" fill="#000000" stroke="none" transform="matrix(1 0 0 1 13 10 )" />
  </g>
</svg>