<?xml version="1.0" encoding="utf-8"?>
<svg version="1.1" xmlns:xlink="http://www.w3.org/1999/xlink" width="100px" height="40px" xmlns="http://www.w3.org/2000/svg">
  <g transform="matrix(1 0 0 1 -20 -181 )">
    <path d="M 21 183  A 1 1 0 0 1 22 182 L 118 182  A 1 1 0 0 1 119 183 L 119 219  A 1 1 0 0 1 118 220 L 22 220  A 1 1 0 0 1 21 219 L 21 183  Z " fill-rule="nonzero" fill="#000000" stroke="none" fill-opacity="0.12156862745098039" />
    <path d="M 20.5 183  A 1.5 1.5 0 0 1 22 181.5 L 118 181.5  A 1.5 1.5 0 0 1 119.5 183 L 119.5 219  A 1.5 1.5 0 0 1 118 220.5 L 22 220.5  A 1.5 1.5 0 0 1 20.5 219 L 20.5 183  Z " stroke-width="1" stroke="#001212" fill="none" stroke-opacity="0.7372549019607844" />
  </g>
</svg>