<?xml version="1.0" encoding="utf-8"?>
<svg version="1.1" xmlns:xlink="http://www.w3.org/1999/xlink" width="346px" height="161px" xmlns="http://www.w3.org/2000/svg">
  <defs>
    <filter x="-5px" y="2px" width="346px" height="161px" filterUnits="userSpaceOnUse" id="filter16">
      <feOffset dx="0" dy="7" in="SourceAlpha" result="shadowOffsetInner" />
      <feGaussianBlur stdDeviation="2.5" in="shadowOffsetInner" result="shadowGaussian" />
      <feComposite in2="shadowGaussian" operator="atop" in="SourceAlpha" result="shadowComposite" />
      <feColorMatrix type="matrix" values="0 0 0 0 0  0 0 0 0 0  0 0 0 0 0  0 0 0 0.34901960784313724 0  " in="shadowComposite" />
    </filter>
    <g id="widget17">
      <path d="M 0.5 22.000000000000004  A 19.5 19.5 0 0 1 19.999999999999996 2.5 L 316 2.5  A 19.5 19.5 0 0 1 335.5 22 L 335.5 150.5  L 0.5 150.5  L 0.5 22  Z " fill-rule="nonzero" fill="#000000" stroke="none" fill-opacity="0.33725490196078434" />
      <path d="M 0.5 22.000000000000004  A 19.5 19.5 0 0 1 19.999999999999996 2.5 L 316 2.5  A 19.5 19.5 0 0 1 335.5 22 L 335.5 150.5  L 0.5 150.5  L 0.5 22  Z " stroke-width="1" stroke="#797979" fill="none" />
    </g>
  </defs>
  <g transform="matrix(1 0 0 1 5 -2 )">
    <use xlink:href="#widget17" filter="url(#filter16)" />
    <use xlink:href="#widget17" />
  </g>
</svg>