<?xml version="1.0" encoding="utf-8"?>
<svg version="1.1" xmlns:xlink="http://www.w3.org/1999/xlink" width="15px" height="15px" viewBox="9 859  15 15" xmlns="http://www.w3.org/2000/svg">
  <path d="M 16.5 859  C 20.700000000000003 859  24 862.3  24 866.5  C 24 870.7  20.700000000000003 874  16.5 874  C 12.3 874  9 870.7  9 866.5  C 9 862.3  12.3 859  16.5 859  Z " fill-rule="nonzero" fill="#f0f0f0" stroke="none" />
  <path d="M 16.5 859.5  C 20.42 859.5  23.5 862.58  23.5 866.5  C 23.5 870.42  20.42 873.5  16.5 873.5  C 12.58 873.5  9.5 870.42  9.5 866.5  C 9.5 862.58  12.58 859.5  16.5 859.5  Z " stroke-width="1" stroke="#797979" fill="none" />
  <path d="M 16.5 870.25  C 14.4 870.25  12.75 868.6  12.75 866.5  C 12.75 864.4  14.4 862.75  16.5 862.75  C 18.6 862.75  20.25 864.4  20.25 866.5  C 20.25 868.6  18.6 870.25  16.5 870.25  " fill-rule="nonzero" fill="#797979" stroke="none" />
</svg>