<?xml version="1.0" encoding="utf-8"?>
<svg version="1.1" xmlns:xlink="http://www.w3.org/1999/xlink" width="15px" height="15px" viewBox="9 443  15 15" xmlns="http://www.w3.org/2000/svg">
  <path d="M 16.5 443  C 20.700000000000003 443  24 446.3  24 450.5  C 24 454.7  20.700000000000003 458  16.5 458  C 12.3 458  9 454.7  9 450.5  C 9 446.3  12.3 443  16.5 443  Z " fill-rule="nonzero" fill="#ffffff" stroke="none" />
  <path d="M 16.5 443.5  C 20.42 443.5  23.5 446.58  23.5 450.5  C 23.5 454.42  20.42 457.5  16.5 457.5  C 12.58 457.5  9.5 454.42  9.5 450.5  C 9.5 446.58  12.58 443.5  16.5 443.5  Z " stroke-width="1" stroke="#797979" fill="none" />
  <path d="M 16.5 454.25  C 14.4 454.25  12.75 452.6  12.75 450.5  C 12.75 448.4  14.4 446.75  16.5 446.75  C 18.6 446.75  20.25 448.4  20.25 450.5  C 20.25 452.6  18.6 454.25  16.5 454.25  " fill-rule="nonzero" fill="#797979" stroke="none" />
</svg>