<?xml version="1.0" encoding="utf-8"?>
<svg version="1.1" xmlns:xlink="http://www.w3.org/1999/xlink" width="15px" height="15px" viewBox="9 1204  15 15" xmlns="http://www.w3.org/2000/svg">
  <path d="M 16.5 1204  C 20.700000000000003 1204  24 1207.3  24 1211.5  C 24 1215.7  20.700000000000003 1219  16.5 1219  C 12.3 1219  9 1215.7  9 1211.5  C 9 1207.3  12.3 1204  16.5 1204  Z " fill-rule="nonzero" fill="#f0f0f0" stroke="none" />
  <path d="M 16.5 1204.5  C 20.42 1204.5  23.5 1207.58  23.5 1211.5  C 23.5 1215.42  20.42 1218.5  16.5 1218.5  C 12.58 1218.5  9.5 1215.42  9.5 1211.5  C 9.5 1207.58  12.58 1204.5  16.5 1204.5  Z " stroke-width="1" stroke="#797979" fill="none" />
  <path d="M 16.5 1215.25  C 14.4 1215.25  12.75 1213.6  12.75 1211.5  C 12.75 1209.4  14.4 1207.75  16.5 1207.75  C 18.6 1207.75  20.25 1209.4  20.25 1211.5  C 20.25 1213.6  18.6 1215.25  16.5 1215.25  " fill-rule="nonzero" fill="#797979" stroke="none" />
</svg>