<?xml version="1.0" encoding="utf-8"?>
<svg version="1.1" xmlns:xlink="http://www.w3.org/1999/xlink" width="15px" height="15px" viewBox="9 317  15 15" xmlns="http://www.w3.org/2000/svg">
  <path d="M 16.5 317  C 20.700000000000003 317  24 320.3  24 324.5  C 24 328.7  20.700000000000003 332  16.5 332  C 12.3 332  9 328.7  9 324.5  C 9 320.3  12.3 317  16.5 317  Z " fill-rule="nonzero" fill="#ffffff" stroke="none" />
  <path d="M 16.5 317.5  C 20.42 317.5  23.5 320.58  23.5 324.5  C 23.5 328.42  20.42 331.5  16.5 331.5  C 12.58 331.5  9.5 328.42  9.5 324.5  C 9.5 320.58  12.58 317.5  16.5 317.5  Z " stroke-width="1" stroke="#797979" fill="none" />
  <path d="M 16.5 328.25  C 14.4 328.25  12.75 326.6  12.75 324.5  C 12.75 322.4  14.4 320.75  16.5 320.75  C 18.6 320.75  20.25 322.4  20.25 324.5  C 20.25 326.6  18.6 328.25  16.5 328.25  " fill-rule="nonzero" fill="#797979" stroke="none" />
</svg>