<?xml version="1.0" encoding="utf-8"?>
<svg version="1.1" xmlns:xlink="http://www.w3.org/1999/xlink" width="15px" height="15px" viewBox="9 933  15 15" xmlns="http://www.w3.org/2000/svg">
  <path d="M 16.5 933  C 20.700000000000003 933  24 936.3  24 940.5  C 24 944.7  20.700000000000003 948  16.5 948  C 12.3 948  9 944.7  9 940.5  C 9 936.3  12.3 933  16.5 933  Z " fill-rule="nonzero" fill="#f0f0f0" stroke="none" />
  <path d="M 16.5 933.5  C 20.42 933.5  23.5 936.58  23.5 940.5  C 23.5 944.42  20.42 947.5  16.5 947.5  C 12.58 947.5  9.5 944.42  9.5 940.5  C 9.5 936.58  12.58 933.5  16.5 933.5  Z " stroke-width="1" stroke="#797979" fill="none" />
  <path d="M 16.5 944.25  C 14.4 944.25  12.75 942.6  12.75 940.5  C 12.75 938.4  14.4 936.75  16.5 936.75  C 18.6 936.75  20.25 938.4  20.25 940.5  C 20.25 942.6  18.6 944.25  16.5 944.25  " fill-rule="nonzero" fill="#797979" stroke="none" />
</svg>