<?xml version="1.0" encoding="utf-8"?>
<svg version="1.1" xmlns:xlink="http://www.w3.org/1999/xlink" width="15px" height="15px" viewBox="9 1159  15 15" xmlns="http://www.w3.org/2000/svg">
  <path d="M 16.5 1159  C 20.700000000000003 1159  24 1162.3  24 1166.5  C 24 1170.7  20.700000000000003 1174  16.5 1174  C 12.3 1174  9 1170.7  9 1166.5  C 9 1162.3  12.3 1159  16.5 1159  Z " fill-rule="nonzero" fill="#ffffff" stroke="none" />
  <path d="M 16.5 1159.5  C 20.42 1159.5  23.5 1162.58  23.5 1166.5  C 23.5 1170.42  20.42 1173.5  16.5 1173.5  C 12.58 1173.5  9.5 1170.42  9.5 1166.5  C 9.5 1162.58  12.58 1159.5  16.5 1159.5  Z " stroke-width="1" stroke="#797979" fill="none" />
  <path d="M 16.5 1170.25  C 14.4 1170.25  12.75 1168.6  12.75 1166.5  C 12.75 1164.4  14.4 1162.75  16.5 1162.75  C 18.6 1162.75  20.25 1164.4  20.25 1166.5  C 20.25 1168.6  18.6 1170.25  16.5 1170.25  " fill-rule="nonzero" fill="#797979" stroke="none" />
</svg>