<?xml version="1.0" encoding="utf-8"?>
<svg version="1.1" xmlns:xlink="http://www.w3.org/1999/xlink" width="15px" height="15px" viewBox="9 799  15 15" xmlns="http://www.w3.org/2000/svg">
  <path d="M 16.5 799  C 20.700000000000003 799  24 802.3  24 806.5  C 24 810.7  20.700000000000003 814  16.5 814  C 12.3 814  9 810.7  9 806.5  C 9 802.3  12.3 799  16.5 799  Z " fill-rule="nonzero" fill="#ffffff" stroke="none" />
  <path d="M 16.5 799.5  C 20.42 799.5  23.5 802.58  23.5 806.5  C 23.5 810.42  20.42 813.5  16.5 813.5  C 12.58 813.5  9.5 810.42  9.5 806.5  C 9.5 802.58  12.58 799.5  16.5 799.5  Z " stroke-width="1" stroke="#797979" fill="none" />
  <path d="M 16.5 810.25  C 14.4 810.25  12.75 808.6  12.75 806.5  C 12.75 804.4  14.4 802.75  16.5 802.75  C 18.6 802.75  20.25 804.4  20.25 806.5  C 20.25 808.6  18.6 810.25  16.5 810.25  " fill-rule="nonzero" fill="#797979" stroke="none" />
</svg>