<?xml version="1.0" encoding="utf-8"?>
<svg version="1.1" xmlns:xlink="http://www.w3.org/1999/xlink" width="15px" height="15px" viewBox="9 705  15 15" xmlns="http://www.w3.org/2000/svg">
  <path d="M 16.5 705  C 20.700000000000003 705  24 708.3  24 712.5  C 24 716.7  20.700000000000003 720  16.5 720  C 12.3 720  9 716.7  9 712.5  C 9 708.3  12.3 705  16.5 705  Z " fill-rule="nonzero" fill="#f0f0f0" stroke="none" />
  <path d="M 16.5 705.5  C 20.42 705.5  23.5 708.58  23.5 712.5  C 23.5 716.42  20.42 719.5  16.5 719.5  C 12.58 719.5  9.5 716.42  9.5 712.5  C 9.5 708.58  12.58 705.5  16.5 705.5  Z " stroke-width="1" stroke="#797979" fill="none" />
  <path d="M 16.5 716.25  C 14.4 716.25  12.75 714.6  12.75 712.5  C 12.75 710.4  14.4 708.75  16.5 708.75  C 18.6 708.75  20.25 710.4  20.25 712.5  C 20.25 714.6  18.6 716.25  16.5 716.25  " fill-rule="nonzero" fill="#797979" stroke="none" />
</svg>