<?xml version="1.0" encoding="utf-8"?>
<svg version="1.1" xmlns:xlink="http://www.w3.org/1999/xlink" width="15px" height="15px" viewBox="9 832  15 15" xmlns="http://www.w3.org/2000/svg">
  <path d="M 16.5 832  C 20.700000000000003 832  24 835.3  24 839.5  C 24 843.7  20.700000000000003 847  16.5 847  C 12.3 847  9 843.7  9 839.5  C 9 835.3  12.3 832  16.5 832  Z " fill-rule="nonzero" fill="#f0f0f0" stroke="none" />
  <path d="M 16.5 832.5  C 20.42 832.5  23.5 835.58  23.5 839.5  C 23.5 843.42  20.42 846.5  16.5 846.5  C 12.58 846.5  9.5 843.42  9.5 839.5  C 9.5 835.58  12.58 832.5  16.5 832.5  Z " stroke-width="1" stroke="#797979" fill="none" />
  <path d="M 16.5 843.25  C 14.4 843.25  12.75 841.6  12.75 839.5  C 12.75 837.4  14.4 835.75  16.5 835.75  C 18.6 835.75  20.25 837.4  20.25 839.5  C 20.25 841.6  18.6 843.25  16.5 843.25  " fill-rule="nonzero" fill="#797979" stroke="none" />
</svg>