<?xml version="1.0" encoding="utf-8"?>
<svg version="1.1" xmlns:xlink="http://www.w3.org/1999/xlink" width="30px" height="30px" xmlns="http://www.w3.org/2000/svg">
  <g transform="matrix(1 0 0 1 -202 -667 )">
    <path d="M 23.2421875 12.499999999999998  C 23.2421875 12.838541666666664  23.118489583333336 13.131510416666664  22.87109375 13.378906249999998  L 14.62890625 21.62109375  C 14.381510416666668 21.86848958333333  14.088541666666668 21.992187500000004  13.75 21.992187500000004  C 13.411458333333336 21.992187500000004  13.118489583333336 21.86848958333333  12.87109375 21.62109375  L 7.12890625 15.87890625  C 6.881510416666668 15.631510416666663  6.7578125 15.338541666666663  6.7578125 15  C 6.7578125 14.661458333333334  6.881510416666668 14.368489583333334  7.12890625 14.12109375  L 9.12109375 12.12890625  C 9.368489583333336 11.881510416666666  9.661458333333336 11.757812500000002  10 11.757812500000002  C 10.338541666666668 11.757812500000002  10.631510416666668 11.881510416666666  10.87890625 12.12890625  L 13.75 15  L 19.12109375 9.628906249999998  C 19.368489583333336 9.381510416666664  19.661458333333336 9.2578125  20 9.2578125  C 20.338541666666668 9.2578125  20.631510416666668 9.381510416666664  20.87890625 9.628906249999998  L 22.87109375 11.621093749999998  C 23.118489583333336 11.868489583333332  23.2421875 12.161458333333332  23.2421875 12.499999999999998  Z M 24.19921875 20.33203125  C 25.149739583333332 18.70442708333333  25.625 16.927083333333336  25.625 15  C 25.625 13.072916666666664  25.149739583333332 11.295572916666666  24.19921875 9.66796875  C 23.24869791666667 8.04036458333333  21.95963541666667 6.75130208333333  20.33203125 5.80078125  C 18.704427083333332 4.850260416666666  16.927083333333336 4.375000000000001  15 4.375000000000001  C 13.072916666666666 4.375000000000001  11.295572916666668 4.850260416666666  9.66796875 5.80078125  C 8.040364583333334 6.75130208333333  6.751302083333334 8.04036458333333  5.80078125 9.66796875  C 4.850260416666667 11.295572916666666  4.375 13.072916666666664  4.375 15  C 4.375 16.927083333333336  4.850260416666667 18.70442708333333  5.80078125 20.33203125  C 6.751302083333334 21.959635416666664  8.040364583333334 23.248697916666668  9.66796875 24.19921875  C 11.295572916666668 25.149739583333332  13.072916666666666 25.625  15 25.625  C 16.927083333333336 25.625  18.704427083333332 25.149739583333332  20.33203125 24.19921875  C 21.95963541666667 23.248697916666668  23.24869791666667 21.959635416666664  24.19921875 20.33203125  Z M 27.98828125 7.470703125  C 29.32942708333333 9.76888020833333  30 12.278645833333329  30 15  C 30 17.721354166666668  29.32942708333333 20.231119791666664  27.98828125 22.529296875  C 26.64713541666667 24.827473958333332  24.827473958333332 26.647135416666668  22.529296875 27.98828125  C 20.23111979166667 29.329427083333336  17.721354166666668 30  15 30  C 12.278645833333334 30  9.768880208333334 29.329427083333336  7.470703125 27.98828125  C 5.172526041666667 26.647135416666668  3.352864583333334 24.827473958333332  2.01171875 22.529296875  C 0.6705729166666665 20.231119791666664  0 17.721354166666668  0 15  C 0 12.278645833333329  0.6705729166666665 9.76888020833333  2.01171875 7.470703125  C 3.352864583333334 5.172526041666666  5.172526041666667 3.3528645833333304  7.470703125 2.011718749999999  C 9.768880208333334 0.6705729166666641  12.278645833333334 0  15 0  C 17.721354166666668 0  20.23111979166667 0.6705729166666641  22.529296875 2.011718749999999  C 24.827473958333332 3.3528645833333304  26.64713541666667 5.172526041666666  27.98828125 7.470703125  Z " fill-rule="nonzero" fill="#ffffff" stroke="none" transform="matrix(1 0 0 1 202 667 )" />
  </g>
</svg>