<?xml version="1.0" encoding="utf-8"?>
<svg version="1.1" xmlns:xlink="http://www.w3.org/1999/xlink" width="34px" height="33px" xmlns="http://www.w3.org/2000/svg">
  <g transform="matrix(1 0 0 1 -28 -20 )">
    <path d="M 27.912760416666664 18.841796875000004  C 28.193142361111114 18.569661458333332  28.333333333333336 18.247395833333332  28.333333333333336 17.875000000000004  L 28.333333333333336 15.125000000000002  C 28.333333333333336 14.752604166666664  28.193142361111114 14.430338541666664  27.912760416666664 14.158203125000002  C 27.632378472222225 13.886067708333334  27.300347222222225 13.749999999999998  26.916666666666664 14  L 15.8046875 14  L 19.98828125 9.689453124999998  C 20.268663194444446 9.417317708333332  20.408854166666664 9.095052083333332  20.408854166666664 8.722656249999998  C 20.408854166666664 8.350260416666663  20.268663194444446 8.027994791666663  19.98828125 7.755859374999999  L 17.973958333333336 5.80078125  C 17.708333333333336 5.54296875  17.376302083333336 5.4140625  16.977864583333332 5.4140625  C 16.579427083333332 5.4140625  16.247395833333332 5.54296875  15.981770833333332 5.80078125  L 7.96875 13.578125000000002  L 5.954427083333334 15.533203125  C 5.688802083333334 15.791015625  5.555989583333334 16.11328125  5.555989583333334 16.5  C 5.555989583333334 16.88671875  5.688802083333334 17.208984375  5.954427083333334 17.466796875  L 7.96875 19.421875000000004  L 15.981770833333332 27.19921875  C 16.247395833333332 27.45703125  16.579427083333332 27.5859375  16.977864583333332 27.5859375  C 17.376302083333336 27.5859375  17.708333333333336 27.45703125  17.973958333333336 27.19921875  L 19.98828125 25.244140625  C 20.253906250000004 24.986328125  20.386718750000004 24.664062499999996  20.38671875 24.277343749999996  C 20.386718750000004 23.890624999999996  20.253906250000004 23.568359374999996  19.98828125 23.310546874999996  L 15.8046875 19  L 26.916666666666664 19  C 27.300347222222225 19.249999999999996  27.632378472222225 19.113932291666664  27.912760416666664 18.841796875000004  Z M 31.720052083333336 8.2177734375  C 33.24001736111111 10.745768229166664  34 13.506510416666663  34 16.5  C 34 19.493489583333336  33.24001736111111 22.25423177083333  31.720052083333336 24.7822265625  C 30.200086805555557 27.310221354166668  28.137803819444446 29.311848958333332  25.533203125 30.787109375  C 22.928602430555557 32.26236979166667  20.08420138888889 33  17 33  C 13.915798611111112 33  11.071397569444445 32.26236979166667  8.466796875 30.787109375  C 5.862196180555556 29.311848958333332  3.7999131944444446 27.310221354166668  2.279947916666667 24.7822265625  C 0.7599826388888888 22.25423177083333  0 19.493489583333336  0 16.5  C 0 13.506510416666663  0.7599826388888888 10.745768229166664  2.279947916666667 8.2177734375  C 3.7999131944444446 5.689778645833333  5.862196180555556 3.6881510416666634  8.466796875 2.2128906249999987  C 11.071397569444445 0.7376302083333305  13.915798611111112 0  17 0  C 20.08420138888889 0  22.928602430555557 0.7376302083333305  25.533203125 2.2128906249999987  C 28.137803819444446 3.6881510416666634  30.200086805555557 5.689778645833333  31.720052083333336 8.2177734375  Z " fill-rule="nonzero" fill="#333333" stroke="none" transform="matrix(1 0 0 1 28 20 )" />
  </g>
</svg>