<?xml version="1.0" encoding="utf-8"?>
<svg version="1.1" xmlns:xlink="http://www.w3.org/1999/xlink" width="85px" height="85px" xmlns="http://www.w3.org/2000/svg">
  <defs>
    <filter x="267px" y="8px" width="85px" height="85px" filterUnits="userSpaceOnUse" id="filter108">
      <feOffset dx="0" dy="3" in="SourceAlpha" result="shadowOffsetInner" />
      <feGaussianBlur stdDeviation="2.5" in="shadowOffsetInner" result="shadowGaussian" />
      <feComposite in2="shadowGaussian" operator="atop" in="SourceAlpha" result="shadowComposite" />
      <feColorMatrix type="matrix" values="0 0 0 0 0  0 0 0 0 0  0 0 0 0 0  0 0 0 0.19607843137254902 0  " in="shadowComposite" />
    </filter>
    <g id="widget109">
      <path d="M 309.5 10.5  C 330.22 10.5  346.5 26.779999999999998  346.5 47.5  C 346.5 68.22  330.22 84.5  309.5 84.5  C 288.78 84.5  272.5 68.22  272.5 47.5  C 272.5 26.779999999999998  288.78 10.5  309.5 10.5  Z " fill-rule="nonzero" fill="#c7997b" stroke="none" fill-opacity="0.9921568627450981" />
      <path d="M 309.5 10.5  C 330.22 10.5  346.5 26.779999999999998  346.5 47.5  C 346.5 68.22  330.22 84.5  309.5 84.5  C 288.78 84.5  272.5 68.22  272.5 47.5  C 272.5 26.779999999999998  288.78 10.5  309.5 10.5  Z " stroke-width="1" stroke="#000000" fill="none" stroke-opacity="0.9529411764705882" />
    </g>
  </defs>
  <g transform="matrix(1 0 0 1 -267 -8 )">
    <use xlink:href="#widget109" filter="url(#filter108)" />
    <use xlink:href="#widget109" />
  </g>
</svg>