<?xml version="1.0" encoding="utf-8"?>
<svg version="1.1" xmlns:xlink="http://www.w3.org/1999/xlink" width="15px" height="15px" viewBox="-1 306  15 15" xmlns="http://www.w3.org/2000/svg">
  <path d="M 6.5 306  C 10.700000000000001 306  14 309.3  14 313.5  C 14 317.7  10.700000000000001 321  6.5 321  C 2.3 321  -1 317.7  -1 313.5  C -1 309.3  2.3 306  6.5 306  Z " fill-rule="nonzero" fill="#ffffff" stroke="none" />
  <path d="M 6.5 306.5  C 10.42 306.5  13.5 309.58  13.5 313.5  C 13.5 317.42  10.42 320.5  6.5 320.5  C 2.5799999999999996 320.5  -0.5 317.42  -0.5 313.5  C -0.5 309.58  2.5799999999999996 306.5  6.5 306.5  Z " stroke-width="1" stroke="#797979" fill="none" />
  <path d="M 6.5 317.25  C 4.4 317.25  2.75 315.6  2.75 313.5  C 2.75 311.4  4.4 309.75  6.5 309.75  C 8.6 309.75  10.25 311.4  10.25 313.5  C 10.25 315.6  8.6 317.25  6.5 317.25  " fill-rule="nonzero" fill="#797979" stroke="none" />
</svg>