<?xml version="1.0" encoding="utf-8"?>
<svg version="1.1" xmlns:xlink="http://www.w3.org/1999/xlink" width="15px" height="15px" viewBox="-1 278  15 15" xmlns="http://www.w3.org/2000/svg">
  <path d="M 6.5 278  C 10.700000000000001 278  14 281.3  14 285.5  C 14 289.7  10.700000000000001 293  6.5 293  C 2.3 293  -1 289.7  -1 285.5  C -1 281.3  2.3 278  6.5 278  Z " fill-rule="nonzero" fill="#f0f0f0" stroke="none" />
  <path d="M 6.5 278.5  C 10.42 278.5  13.5 281.58  13.5 285.5  C 13.5 289.42  10.42 292.5  6.5 292.5  C 2.5799999999999996 292.5  -0.5 289.42  -0.5 285.5  C -0.5 281.58  2.5799999999999996 278.5  6.5 278.5  Z " stroke-width="1" stroke="#797979" fill="none" />
  <path d="M 6.5 289.25  C 4.4 289.25  2.75 287.6  2.75 285.5  C 2.75 283.4  4.4 281.75  6.5 281.75  C 8.6 281.75  10.25 283.4  10.25 285.5  C 10.25 287.6  8.6 289.25  6.5 289.25  " fill-rule="nonzero" fill="#797979" stroke="none" />
</svg>