<?xml version="1.0" encoding="utf-8"?>
<svg version="1.1" xmlns:xlink="http://www.w3.org/1999/xlink" width="15px" height="15px" viewBox="-1 553  15 15" xmlns="http://www.w3.org/2000/svg">
  <path d="M 6.5 553  C 10.700000000000001 553  14 556.3  14 560.5  C 14 564.7  10.700000000000001 568  6.5 568  C 2.3 568  -1 564.7  -1 560.5  C -1 556.3  2.3 553  6.5 553  Z " fill-rule="nonzero" fill="#ffffff" stroke="none" />
  <path d="M 6.5 553.5  C 10.42 553.5  13.5 556.58  13.5 560.5  C 13.5 564.42  10.42 567.5  6.5 567.5  C 2.5799999999999996 567.5  -0.5 564.42  -0.5 560.5  C -0.5 556.58  2.5799999999999996 553.5  6.5 553.5  Z " stroke-width="1" stroke="#797979" fill="none" />
  <path d="M 6.5 564.25  C 4.4 564.25  2.75 562.6  2.75 560.5  C 2.75 558.4  4.4 556.75  6.5 556.75  C 8.6 556.75  10.25 558.4  10.25 560.5  C 10.25 562.6  8.6 564.25  6.5 564.25  " fill-rule="nonzero" fill="#797979" stroke="none" />
</svg>