<?xml version="1.0" encoding="utf-8"?>
<svg version="1.1" xmlns:xlink="http://www.w3.org/1999/xlink" width="15px" height="15px" viewBox="-1 422  15 15" xmlns="http://www.w3.org/2000/svg">
  <path d="M 6.5 422  C 10.700000000000001 422  14 425.3  14 429.5  C 14 433.7  10.700000000000001 437  6.5 437  C 2.3 437  -1 433.7  -1 429.5  C -1 425.3  2.3 422  6.5 422  Z " fill-rule="nonzero" fill="#ffffff" stroke="none" />
  <path d="M 6.5 422.5  C 10.42 422.5  13.5 425.58  13.5 429.5  C 13.5 433.42  10.42 436.5  6.5 436.5  C 2.5799999999999996 436.5  -0.5 433.42  -0.5 429.5  C -0.5 425.58  2.5799999999999996 422.5  6.5 422.5  Z " stroke-width="1" stroke="#797979" fill="none" />
  <path d="M 6.5 433.25  C 4.4 433.25  2.75 431.6  2.75 429.5  C 2.75 427.4  4.4 425.75  6.5 425.75  C 8.6 425.75  10.25 427.4  10.25 429.5  C 10.25 431.6  8.6 433.25  6.5 433.25  " fill-rule="nonzero" fill="#797979" stroke="none" />
</svg>