<?xml version="1.0" encoding="utf-8"?>
<svg version="1.1" xmlns:xlink="http://www.w3.org/1999/xlink" width="68px" height="68px" xmlns="http://www.w3.org/2000/svg">
  <g transform="matrix(1 0 0 1 -146 -656 )">
    <path d="M 45.00130208333333 7.92447916666667  C 41.50390625 6.41927083333333  37.83680555555556 5.66666666666667  34 5.66666666666667  C 30.163194444444446 5.66666666666667  26.49609375 6.41927083333333  22.998697916666664 7.92447916666667  C 19.501302083333336 9.4296875  16.490885416666668 11.44401041666667  13.967447916666668 13.96744791666667  C 11.444010416666668 16.490885416666668  9.4296875 19.501302083333332  7.924479166666666 22.998697916666668  C 6.419270833333334 26.49609375  5.666666666666666 30.163194444444443  5.666666666666666 34  C 5.666666666666666 37.83680555555556  6.419270833333334 41.50390625  7.924479166666666 45.001302083333336  C 9.4296875 48.498697916666664  11.444010416666668 51.50911458333333  13.967447916666668 54.03255208333333  C 16.490885416666668 56.55598958333333  19.501302083333336 58.5703125  22.998697916666664 60.07552083333333  C 26.49609375 61.58072916666667  30.163194444444446 62.33333333333333  34 62.33333333333333  C 37.83680555555556 62.33333333333333  41.50390625 61.58072916666667  45.00130208333333 60.07552083333333  C 48.49869791666667 58.5703125  51.50911458333333 56.55598958333333  54.03255208333333 54.03255208333333  C 56.55598958333333 51.50911458333333  58.5703125 48.498697916666664  60.07552083333333 45.001302083333336  C 61.58072916666667 41.50390625  62.33333333333333 37.83680555555556  62.33333333333333 34  C 62.33333333333333 30.163194444444443  61.58072916666667 26.49609375  60.07552083333333 22.998697916666668  C 58.5703125 19.501302083333332  56.55598958333333 16.490885416666668  54.03255208333333 13.96744791666667  C 51.50911458333333 11.44401041666667  48.49869791666667 9.4296875  45.00130208333333 7.92447916666667  Z M 63.44010416666667 16.93359375  C 66.48003472222221 22.142795138888882  68 27.831597222222214  68 34  C 68 40.16840277777778  66.48003472222221 45.8572048611111  63.44010416666667 51.06640625  C 60.400173611111114 56.27560763888889  56.27560763888889 60.40017361111111  51.06640625 63.44010416666667  C 45.857204861111114 66.48003472222223  40.16840277777778 68  34 68  C 27.831597222222225 68  22.14279513888889 66.48003472222223  16.93359375 63.44010416666667  C 11.724392361111112 60.40017361111111  7.599826388888889 56.27560763888889  4.559895833333334 51.06640625  C 1.5199652777777777 45.8572048611111  0 40.16840277777778  0 34  C 0 27.831597222222214  1.5199652777777777 22.142795138888882  4.559895833333334 16.93359375  C 7.599826388888889 11.72439236111111  11.724392361111112 7.599826388888882  16.93359375 4.55989583333333  C 22.14279513888889 1.519965277777772  27.831597222222225 0  34 0  C 40.16840277777778 0  45.857204861111114 1.519965277777772  51.06640625 4.55989583333333  C 56.27560763888889 7.599826388888882  60.400173611111114 11.72439236111111  63.44010416666667 16.93359375  Z " fill-rule="nonzero" fill="#000000" stroke="none" fill-opacity="0.8627450980392157" transform="matrix(1 0 0 1 146 656 )" />
  </g>
</svg>