<?xml version="1.0" encoding="utf-8"?>
<svg version="1.1" xmlns:xlink="http://www.w3.org/1999/xlink" width="30px" height="28px" xmlns="http://www.w3.org/2000/svg">
  <g transform="matrix(1 0 0 1 -321 -14 )">
    <path d="M 30 14  C 30 6.257999999999998  23.295 0  15 0  C 6.704999999999999 0  0 6.257999999999999  0 14  C 0 21.742  6.704999999999999 28  15 28  C 23.295 28  30 21.742  30 14  Z M 17.115000000000002 14  L 22.5 19.026  L 20.384999999999998 21  L 15 15.974  L 9.615 21  L 7.5 19.026  L 12.885 14  L 7.5 8.974  L 9.615 7  L 15 12.026  L 20.384999999999998 7  L 22.5 8.974  L 17.115000000000002 14  Z " fill-rule="nonzero" fill="#821616" stroke="none" transform="matrix(1 0 0 1 321 14 )" />
  </g>
</svg>