<?xml version="1.0" encoding="utf-8"?>
<svg version="1.1" xmlns:xlink="http://www.w3.org/1999/xlink" width="70px" height="66px" xmlns="http://www.w3.org/2000/svg">
  <defs>
    <mask fill="white" id="clip47">
      <path d="M 22 74  C 13.675 74  7 67.325  7 59  L 7 23  C 7 14.675  13.675 8  22 8  L 62 8  C 70.325 8  77 14.675  77 23  L 77 59  C 77 67.325  70.325 74  62 74  " fill-rule="evenodd" />
    </mask>
  </defs>
  <g transform="matrix(1 0 0 1 -7 -8 )">
    <path d="M 7 8  L 77 8  L 77 74  L 7 74  L 7 8  " fill-rule="nonzero" fill="#cccccc" stroke="none" mask="url(#clip47)" />
    <path d="M 12 13  L 72 13  L 72 69  L 12 69  L 12 13  " fill-rule="nonzero" fill="#ffffff" stroke="none" mask="url(#clip47)" />
    <path d="M 48.349999999999994 27.799999999999997  C 45.577999999999996 27.799999999999997  43.4 25.621999999999996  43.4 22.849999999999998  C 43.4 20.078  45.577999999999996 17.9  48.349999999999994 17.9  C 51.122 17.9  53.3 20.078  53.3 22.849999999999998  C 53.3 25.621999999999996  51.122 27.799999999999997  48.349999999999994 27.799999999999997  " fill-rule="nonzero" fill="#cccccc" stroke="none" mask="url(#clip47)" />
    <path d="M 14 68  L 14 38.849999999999994  L 28.25 25.599999999999994  L 48.199999999999996 38.01714285714286  L 59.6 33.55  L 71 38.01714285714286  L 71 68  L 14 68  " fill-rule="nonzero" fill="#169bd5" stroke="none" mask="url(#clip47)" />
  </g>
</svg>